<svg width="55" height="55" viewBox="0 0 49 48" fill="none" xmlns="http://www.w3.org/2000/svg">
    <path d="M22.5998 22.259C22.4888 22.259 22.377 22.2647 22.2648 22.2758L5.53738 23.9343C4.06164 24.0807 2.85702 25.1679 2.57168 26.6106C2.28634 28.0533 2.98775 29.5115 4.29844 30.1994L7.38311 31.8183L0.984951 38.1619C0.354299 38.7873 0 39.6355 0 40.5196C0 41.4038 0.354299 42.2522 0.984951 42.8774L5.16679 47.0232C5.82351 47.6747 6.6843 48 7.54493 48C8.40556 48 9.26635 47.6747 9.92307 47.0232L16.3212 40.68L17.9541 43.7384C18.5448 44.8445 19.6984 45.5129 20.9258 45.5129C21.1405 45.5129 21.3572 45.4926 21.5737 45.4504C23.0291 45.1676 24.1258 43.973 24.2733 42.5098L25.9462 25.9255C26.0465 24.9302 25.6911 23.9427 24.978 23.2356C24.3443 22.6076 23.4871 22.259 22.5999 22.259H22.5998ZM20.9265 42.1781L17.1629 35.1295L7.54477 44.6655L3.36293 40.5196L12.9811 30.9836L5.8719 27.2524L22.5993 25.5938L20.9264 42.1781H20.9265ZM24.2065 11.7046C25.1351 11.7046 25.8883 10.9582 25.8883 10.0375V1.66706C25.8883 0.746407 25.135 0 24.2065 0C23.2779 0 22.5247 0.746354 22.5247 1.66706V10.0374C22.5247 10.958 23.2779 11.7045 24.2065 11.7045V11.7046ZM33.8737 15.6746C34.3041 15.6746 34.734 15.5118 35.0626 15.1862L41.0322 9.26756C41.6889 8.61687 41.6889 7.56085 41.0322 6.91015C40.3755 6.25872 39.3111 6.25872 38.6541 6.91015L32.6848 12.8285C32.0276 13.4794 32.0276 14.5352 32.6848 15.1862C33.0131 15.5119 33.4434 15.6747 33.8737 15.6747L33.8737 15.6746ZM46.32 21.9243H37.8775C36.9486 21.9243 36.1958 22.6707 36.1958 23.5918C36.1958 24.5125 36.9486 25.2589 37.8775 25.2589H46.32C47.2489 25.2589 48.0017 24.5125 48.0017 23.5918C48.0018 22.6707 47.2489 21.9243 46.32 21.9243ZM35.0626 31.9971C34.4059 31.3457 33.3415 31.3457 32.6848 31.9971C32.0276 32.6481 32.0276 33.7038 32.6848 34.3548L38.654 40.2732C38.9826 40.5989 39.413 40.7616 39.8433 40.7616C40.2733 40.7616 40.7037 40.5988 41.0322 40.2732C41.6889 39.6225 41.6889 38.5664 41.0322 37.9158L35.0626 31.9972V31.9971ZM13.3505 15.1861C13.6787 15.5118 14.1091 15.6746 14.5394 15.6746C14.9697 15.6746 15.3998 15.5117 15.7283 15.1861C16.3851 14.5351 16.3851 13.4794 15.7283 12.8284L9.75872 6.91005C9.10199 6.25861 8.03762 6.25861 7.38089 6.91005C6.72417 7.56074 6.72417 8.61676 7.38089 9.26746L13.3505 15.186V15.1861Z" fill="#25E1AE"/>
</svg>
