<svg width="1719" height="2141" viewBox="0 0 1719 2141" fill="none" xmlns="http://www.w3.org/2000/svg">
<path d="M1469.9 9.38L1468.74 10.05H1466.01L1464.85 9.38V3.62L1466.01 2.95H1468.74L1469.9 3.62V9.38ZM1466.25 4.15V8.85H1468.5V4.15H1466.25ZM1464.85 19.34V18.03L1466.65 17H1467.85V22.8H1469.45V24H1464.85V22.8H1466.45V18.42L1464.85 19.34ZM1469.9 37.38L1468.74 38.05H1466.01L1464.85 37.38V31.62L1466.01 30.95H1468.74L1469.9 31.62V37.38ZM1466.25 32.15V36.85H1468.5V32.15H1466.25ZM1464.85 47.34V46.03L1466.65 45H1467.85V50.8H1469.45V52H1464.85V50.8H1466.45V46.42L1464.85 47.34ZM1469.9 65.38L1468.74 66.05H1466.01L1464.85 65.38V59.62L1466.01 58.95H1468.74L1469.9 59.62V65.38ZM1466.25 60.15V64.85H1468.5V60.15H1466.25ZM1464.85 75.34V74.03L1466.65 73H1467.85V78.8H1469.45V80H1464.85V78.8H1466.45V74.42L1464.85 75.34ZM1469.9 93.38L1468.74 94.05H1466.01L1464.85 93.38V87.62L1466.01 86.95H1468.74L1469.9 87.62V93.38ZM1466.25 88.15V92.85H1468.5V88.15H1466.25ZM1464.85 103.34V102.03L1466.65 101H1467.85V106.8H1469.45V108H1464.85V106.8H1466.45V102.42L1464.85 103.34ZM1469.9 121.38L1468.74 122.05H1466.01L1464.85 121.38V115.62L1466.01 114.95H1468.74L1469.9 115.62V121.38ZM1466.25 116.15V120.85H1468.5V116.15H1466.25ZM1469.9 135.38L1468.74 136.05H1466.01L1464.85 135.38V129.62L1466.01 128.95H1468.74L1469.9 129.62V135.38ZM1466.25 130.15V134.85H1468.5V130.15H1466.25ZM1469.9 149.38L1468.74 150.05H1466.01L1464.85 149.38V143.62L1466.01 142.95H1468.74L1469.9 143.62V149.38ZM1466.25 144.15V148.85H1468.5V144.15H1466.25ZM1464.85 159.34V158.03L1466.65 157H1467.85V162.8H1469.45V164H1464.85V162.8H1466.45V158.42L1464.85 159.34ZM1464.85 173.34V172.03L1466.65 171H1467.85V176.8H1469.45V178H1464.85V176.8H1466.45V172.42L1464.85 173.34ZM1464.85 187.34V186.03L1466.65 185H1467.85V190.8H1469.45V192H1464.85V190.8H1466.45V186.42L1464.85 187.34ZM1469.9 205.38L1468.74 206.05H1466.01L1464.85 205.38V199.62L1466.01 198.95H1468.74L1469.9 199.62V205.38ZM1466.25 200.15V204.85H1468.5V200.15H1466.25ZM1469.9 219.38L1468.74 220.05H1466.01L1464.85 219.38V213.62L1466.01 212.95H1468.74L1469.9 213.62V219.38ZM1466.25 214.15V218.85H1468.5V214.15H1466.25ZM1469.9 233.38L1468.74 234.05H1466.01L1464.85 233.38V227.62L1466.01 226.95H1468.74L1469.9 227.62V233.38ZM1466.25 228.15V232.85H1468.5V228.15H1466.25ZM1464.85 243.34V242.03L1466.65 241H1467.85V246.8H1469.45V248H1464.85V246.8H1466.45V242.42L1464.85 243.34ZM1464.85 257.34V256.03L1466.65 255H1467.85V260.8H1469.45V262H1464.85V260.8H1466.45V256.42L1464.85 257.34ZM1469.9 275.38L1468.74 276.05H1466.01L1464.85 275.38V269.62L1466.01 268.95H1468.74L1469.9 269.62V275.38ZM1466.25 270.15V274.85H1468.5V270.15H1466.25ZM1469.9 289.38L1468.74 290.05H1466.01L1464.85 289.38V283.62L1466.01 282.95H1468.74L1469.9 283.62V289.38ZM1466.25 284.15V288.85H1468.5V284.15H1466.25ZM1469.9 303.38L1468.74 304.05H1466.01L1464.85 303.38V297.62L1466.01 296.95H1468.74L1469.9 297.62V303.38ZM1466.25 298.15V302.85H1468.5V298.15H1466.25ZM1469.9 317.38L1468.74 318.05H1466.01L1464.85 317.38V311.62L1466.01 310.95H1468.74L1469.9 311.62V317.38ZM1466.25 312.15V316.85H1468.5V312.15H1466.25ZM1464.85 327.34V326.03L1466.65 325H1467.85V330.8H1469.45V332H1464.85V330.8H1466.45V326.42L1464.85 327.34ZM1464.85 341.34V340.03L1466.65 339H1467.85V344.8H1469.45V346H1464.85V344.8H1466.45V340.42L1464.85 341.34ZM1464.85 355.34V354.03L1466.65 353H1467.85V358.8H1469.45V360H1464.85V358.8H1466.45V354.42L1464.85 355.34ZM1469.9 373.38L1468.74 374.05H1466.01L1464.85 373.38V367.62L1466.01 366.95H1468.74L1469.9 367.62V373.38ZM1466.25 368.15V372.85H1468.5V368.15H1466.25ZM1464.85 383.34V382.03L1466.65 381H1467.85V386.8H1469.45V388H1464.85V386.8H1466.45V382.42L1464.85 383.34ZM1464.85 397.34V396.03L1466.65 395H1467.85V400.8H1469.45V402H1464.85V400.8H1466.45V396.42L1464.85 397.34ZM1469.9 415.38L1468.74 416.05H1466.01L1464.85 415.38V409.62L1466.01 408.95H1468.74L1469.9 409.62V415.38ZM1466.25 410.15V414.85H1468.5V410.15H1466.25ZM1464.85 425.34V424.03L1466.65 423H1467.85V428.8H1469.45V430H1464.85V428.8H1466.45V424.42L1464.85 425.34ZM1469.9 443.38L1468.74 444.05H1466.01L1464.85 443.38V437.62L1466.01 436.95H1468.74L1469.9 437.62V443.38ZM1466.25 438.15V442.85H1468.5V438.15H1466.25ZM1464.85 453.34V452.03L1466.65 451H1467.85V456.8H1469.45V458H1464.85V456.8H1466.45V452.42L1464.85 453.34ZM1469.9 471.38L1468.74 472.05H1466.01L1464.85 471.38V465.62L1466.01 464.95H1468.74L1469.9 465.62V471.38ZM1466.25 466.15V470.85H1468.5V466.15H1466.25ZM1464.85 481.34V480.03L1466.65 479H1467.85V484.8H1469.45V486H1464.85V484.8H1466.45V480.42L1464.85 481.34ZM1469.9 499.38L1468.74 500.05H1466.01L1464.85 499.38V493.62L1466.01 492.95H1468.74L1469.9 493.62V499.38ZM1466.25 494.15V498.85H1468.5V494.15H1466.25ZM1464.85 509.34V508.03L1466.65 507H1467.85V512.8H1469.45V514H1464.85V512.8H1466.45V508.42L1464.85 509.34ZM1469.9 527.38L1468.74 528.05H1466.01L1464.85 527.38V521.62L1466.01 520.95H1468.74L1469.9 521.62V527.38ZM1466.25 522.15V526.85H1468.5V522.15H1466.25ZM1464.85 537.34V536.03L1466.65 535H1467.85V540.8H1469.45V542H1464.85V540.8H1466.45V536.42L1464.85 537.34ZM1469.9 555.38L1468.74 556.05H1466.01L1464.85 555.38V549.62L1466.01 548.95H1468.74L1469.9 549.62V555.38ZM1466.25 550.15V554.85H1468.5V550.15H1466.25ZM1469.9 569.38L1468.74 570.05H1466.01L1464.85 569.38V563.62L1466.01 562.95H1468.74L1469.9 563.62V569.38ZM1466.25 564.15V568.85H1468.5V564.15H1466.25ZM1464.85 579.34V578.03L1466.65 577H1467.85V582.8H1469.45V584H1464.85V582.8H1466.45V578.42L1464.85 579.34ZM1469.9 597.38L1468.74 598.05H1466.01L1464.85 597.38V591.62L1466.01 590.95H1468.74L1469.9 591.62V597.38ZM1466.25 592.15V596.85H1468.5V592.15H1466.25ZM1464.85 607.34V606.03L1466.65 605H1467.85V610.8H1469.45V612H1464.85V610.8H1466.45V606.42L1464.85 607.34ZM1469.9 625.38L1468.74 626.05H1466.01L1464.85 625.38V619.62L1466.01 618.95H1468.74L1469.9 619.62V625.38ZM1466.25 620.15V624.85H1468.5V620.15H1466.25ZM1464.85 635.34V634.03L1466.65 633H1467.85V638.8H1469.45V640H1464.85V638.8H1466.45V634.42L1464.85 635.34ZM1464.85 649.34V648.03L1466.65 647H1467.85V652.8H1469.45V654H1464.85V652.8H1466.45V648.42L1464.85 649.34ZM1464.85 663.34V662.03L1466.65 661H1467.85V666.8H1469.45V668H1464.85V666.8H1466.45V662.42L1464.85 663.34ZM1464.85 677.34V676.03L1466.65 675H1467.85V680.8H1469.45V682H1464.85V680.8H1466.45V676.42L1464.85 677.34ZM1469.9 695.38L1468.74 696.05H1466.01L1464.85 695.38V689.62L1466.01 688.95H1468.74L1469.9 689.62V695.38ZM1466.25 690.15V694.85H1468.5V690.15H1466.25ZM1464.85 705.34V704.03L1466.65 703H1467.85V708.8H1469.45V710H1464.85V708.8H1466.45V704.42L1464.85 705.34ZM1469.9 723.38L1468.74 724.05H1466.01L1464.85 723.38V717.62L1466.01 716.95H1468.74L1469.9 717.62V723.38ZM1466.25 718.15V722.85H1468.5V718.15H1466.25ZM1469.9 737.38L1468.74 738.05H1466.01L1464.85 737.38V731.62L1466.01 730.95H1468.74L1469.9 731.62V737.38ZM1466.25 732.15V736.85H1468.5V732.15H1466.25ZM1464.85 747.34V746.03L1466.65 745H1467.85V750.8H1469.45V752H1464.85V750.8H1466.45V746.42L1464.85 747.34Z" fill="url(#paint0_linear_161_909)"/>
<path opacity="0.5" d="M1446.08 475.256L1444.69 476.06H1441.41L1440.02 475.256V468.344L1441.41 467.54H1444.69L1446.08 468.344V475.256ZM1441.7 468.98V474.62H1444.4V468.98H1441.7ZM1440.02 487.408V485.836L1442.18 484.6H1443.62V491.56H1445.54V493H1440.02V491.56H1441.94V486.304L1440.02 487.408ZM1446.08 509.256L1444.69 510.06H1441.41L1440.02 509.256V502.344L1441.41 501.54H1444.69L1446.08 502.344V509.256ZM1441.7 502.98V508.62H1444.4V502.98H1441.7ZM1440.02 521.408V519.836L1442.18 518.6H1443.62V525.56H1445.54V527H1440.02V525.56H1441.94V520.304L1440.02 521.408ZM1446.08 543.256L1444.69 544.06H1441.41L1440.02 543.256V536.344L1441.41 535.54H1444.69L1446.08 536.344V543.256ZM1441.7 536.98V542.62H1444.4V536.98H1441.7ZM1440.02 555.408V553.836L1442.18 552.6H1443.62V559.56H1445.54V561H1440.02V559.56H1441.94V554.304L1440.02 555.408ZM1446.08 577.256L1444.69 578.06H1441.41L1440.02 577.256V570.344L1441.41 569.54H1444.69L1446.08 570.344V577.256ZM1441.7 570.98V576.62H1444.4V570.98H1441.7ZM1440.02 589.408V587.836L1442.18 586.6H1443.62V593.56H1445.54V595H1440.02V593.56H1441.94V588.304L1440.02 589.408ZM1446.08 611.256L1444.69 612.06H1441.41L1440.02 611.256V604.344L1441.41 603.54H1444.69L1446.08 604.344V611.256ZM1441.7 604.98V610.62H1444.4V604.98H1441.7ZM1446.08 628.256L1444.69 629.06H1441.41L1440.02 628.256V621.344L1441.41 620.54H1444.69L1446.08 621.344V628.256ZM1441.7 621.98V627.62H1444.4V621.98H1441.7ZM1446.08 645.256L1444.69 646.06H1441.41L1440.02 645.256V638.344L1441.41 637.54H1444.69L1446.08 638.344V645.256ZM1441.7 638.98V644.62H1444.4V638.98H1441.7ZM1440.02 657.408V655.836L1442.18 654.6H1443.62V661.56H1445.54V663H1440.02V661.56H1441.94V656.304L1440.02 657.408ZM1440.02 674.408V672.836L1442.18 671.6H1443.62V678.56H1445.54V680H1440.02V678.56H1441.94V673.304L1440.02 674.408ZM1440.02 691.408V689.836L1442.18 688.6H1443.62V695.56H1445.54V697H1440.02V695.56H1441.94V690.304L1440.02 691.408ZM1446.08 713.256L1444.69 714.06H1441.41L1440.02 713.256V706.344L1441.41 705.54H1444.69L1446.08 706.344V713.256ZM1441.7 706.98V712.62H1444.4V706.98H1441.7ZM1446.08 730.256L1444.69 731.06H1441.41L1440.02 730.256V723.344L1441.41 722.54H1444.69L1446.08 723.344V730.256ZM1441.7 723.98V729.62H1444.4V723.98H1441.7ZM1446.08 747.256L1444.69 748.06H1441.41L1440.02 747.256V740.344L1441.41 739.54H1444.69L1446.08 740.344V747.256ZM1441.7 740.98V746.62H1444.4V740.98H1441.7ZM1440.02 759.408V757.836L1442.18 756.6H1443.62V763.56H1445.54V765H1440.02V763.56H1441.94V758.304L1440.02 759.408ZM1440.02 776.408V774.836L1442.18 773.6H1443.62V780.56H1445.54V782H1440.02V780.56H1441.94V775.304L1440.02 776.408ZM1446.08 798.256L1444.69 799.06H1441.41L1440.02 798.256V791.344L1441.41 790.54H1444.69L1446.08 791.344V798.256ZM1441.7 791.98V797.62H1444.4V791.98H1441.7ZM1446.08 815.256L1444.69 816.06H1441.41L1440.02 815.256V808.344L1441.41 807.54H1444.69L1446.08 808.344V815.256ZM1441.7 808.98V814.62H1444.4V808.98H1441.7ZM1446.08 832.256L1444.69 833.06H1441.41L1440.02 832.256V825.344L1441.41 824.54H1444.69L1446.08 825.344V832.256ZM1441.7 825.98V831.62H1444.4V825.98H1441.7ZM1446.08 849.256L1444.69 850.06H1441.41L1440.02 849.256V842.344L1441.41 841.54H1444.69L1446.08 842.344V849.256ZM1441.7 842.98V848.62H1444.4V842.98H1441.7ZM1440.02 861.408V859.836L1442.18 858.6H1443.62V865.56H1445.54V867H1440.02V865.56H1441.94V860.304L1440.02 861.408ZM1440.02 878.408V876.836L1442.18 875.6H1443.62V882.56H1445.54V884H1440.02V882.56H1441.94V877.304L1440.02 878.408ZM1440.02 895.408V893.836L1442.18 892.6H1443.62V899.56H1445.54V901H1440.02V899.56H1441.94V894.304L1440.02 895.408ZM1446.08 917.256L1444.69 918.06H1441.41L1440.02 917.256V910.344L1441.41 909.54H1444.69L1446.08 910.344V917.256ZM1441.7 910.98V916.62H1444.4V910.98H1441.7ZM1440.02 929.408V927.836L1442.18 926.6H1443.62V933.56H1445.54V935H1440.02V933.56H1441.94V928.304L1440.02 929.408ZM1440.02 946.408V944.836L1442.18 943.6H1443.62V950.56H1445.54V952H1440.02V950.56H1441.94V945.304L1440.02 946.408ZM1446.08 968.256L1444.69 969.06H1441.41L1440.02 968.256V961.344L1441.41 960.54H1444.69L1446.08 961.344V968.256ZM1441.7 961.98V967.62H1444.4V961.98H1441.7ZM1440.02 980.408V978.836L1442.18 977.6H1443.62V984.56H1445.54V986H1440.02V984.56H1441.94V979.304L1440.02 980.408ZM1446.08 1002.26L1444.69 1003.06H1441.41L1440.02 1002.26V995.344L1441.41 994.54H1444.69L1446.08 995.344V1002.26ZM1441.7 995.98V1001.62H1444.4V995.98H1441.7ZM1440.02 1014.41V1012.84L1442.18 1011.6H1443.62V1018.56H1445.54V1020H1440.02V1018.56H1441.94V1013.3L1440.02 1014.41ZM1446.08 1036.26L1444.69 1037.06H1441.41L1440.02 1036.26V1029.34L1441.41 1028.54H1444.69L1446.08 1029.34V1036.26ZM1441.7 1029.98V1035.62H1444.4V1029.98H1441.7ZM1440.02 1048.41V1046.84L1442.18 1045.6H1443.62V1052.56H1445.54V1054H1440.02V1052.56H1441.94V1047.3L1440.02 1048.41ZM1446.08 1070.26L1444.69 1071.06H1441.41L1440.02 1070.26V1063.34L1441.41 1062.54H1444.69L1446.08 1063.34V1070.26ZM1441.7 1063.98V1069.62H1444.4V1063.98H1441.7ZM1440.02 1082.41V1080.84L1442.18 1079.6H1443.62V1086.56H1445.54V1088H1440.02V1086.56H1441.94V1081.3L1440.02 1082.41ZM1446.08 1104.26L1444.69 1105.06H1441.41L1440.02 1104.26V1097.34L1441.41 1096.54H1444.69L1446.08 1097.34V1104.26ZM1441.7 1097.98V1103.62H1444.4V1097.98H1441.7ZM1440.02 1116.41V1114.84L1442.18 1113.6H1443.62V1120.56H1445.54V1122H1440.02V1120.56H1441.94V1115.3L1440.02 1116.41ZM1446.08 1138.26L1444.69 1139.06H1441.41L1440.02 1138.26V1131.34L1441.41 1130.54H1444.69L1446.08 1131.34V1138.26ZM1441.7 1131.98V1137.62H1444.4V1131.98H1441.7ZM1446.08 1155.26L1444.69 1156.06H1441.41L1440.02 1155.26V1148.34L1441.41 1147.54H1444.69L1446.08 1148.34V1155.26ZM1441.7 1148.98V1154.62H1444.4V1148.98H1441.7ZM1440.02 1167.41V1165.84L1442.18 1164.6H1443.62V1171.56H1445.54V1173H1440.02V1171.56H1441.94V1166.3L1440.02 1167.41ZM1446.08 1189.26L1444.69 1190.06H1441.41L1440.02 1189.26V1182.34L1441.41 1181.54H1444.69L1446.08 1182.34V1189.26ZM1441.7 1182.98V1188.62H1444.4V1182.98H1441.7ZM1440.02 1201.41V1199.84L1442.18 1198.6H1443.62V1205.56H1445.54V1207H1440.02V1205.56H1441.94V1200.3L1440.02 1201.41ZM1446.08 1223.26L1444.69 1224.06H1441.41L1440.02 1223.26V1216.34L1441.41 1215.54H1444.69L1446.08 1216.34V1223.26ZM1441.7 1216.98V1222.62H1444.4V1216.98H1441.7ZM1440.02 1235.41V1233.84L1442.18 1232.6H1443.62V1239.56H1445.54V1241H1440.02V1239.56H1441.94V1234.3L1440.02 1235.41ZM1440.02 1252.41V1250.84L1442.18 1249.6H1443.62V1256.56H1445.54V1258H1440.02V1256.56H1441.94V1251.3L1440.02 1252.41ZM1440.02 1269.41V1267.84L1442.18 1266.6H1443.62V1273.56H1445.54V1275H1440.02V1273.56H1441.94V1268.3L1440.02 1269.41ZM1440.02 1286.41V1284.84L1442.18 1283.6H1443.62V1290.56H1445.54V1292H1440.02V1290.56H1441.94V1285.3L1440.02 1286.41ZM1446.08 1308.26L1444.69 1309.06H1441.41L1440.02 1308.26V1301.34L1441.41 1300.54H1444.69L1446.08 1301.34V1308.26ZM1441.7 1301.98V1307.62H1444.4V1301.98H1441.7ZM1440.02 1320.41V1318.84L1442.18 1317.6H1443.62V1324.56H1445.54V1326H1440.02V1324.56H1441.94V1319.3L1440.02 1320.41ZM1446.08 1342.26L1444.69 1343.06H1441.41L1440.02 1342.26V1335.34L1441.41 1334.54H1444.69L1446.08 1335.34V1342.26ZM1441.7 1335.98V1341.62H1444.4V1335.98H1441.7ZM1446.08 1359.26L1444.69 1360.06H1441.41L1440.02 1359.26V1352.34L1441.41 1351.54H1444.69L1446.08 1352.34V1359.26ZM1441.7 1352.98V1358.62H1444.4V1352.98H1441.7ZM1440.02 1371.41V1369.84L1442.18 1368.6H1443.62V1375.56H1445.54V1377H1440.02V1375.56H1441.94V1370.3L1440.02 1371.41Z" fill="url(#paint1_linear_161_909)"/>
<path opacity="0.4" d="M625.08 310.256L623.688 311.06H620.412L619.02 310.256V303.344L620.412 302.54H623.688L625.08 303.344V310.256ZM620.7 303.98V309.62H623.4V303.98H620.7ZM619.02 322.408V320.836L621.18 319.6H622.62V326.56H624.54V328H619.02V326.56H620.94V321.304L619.02 322.408ZM625.08 344.256L623.688 345.06H620.412L619.02 344.256V337.344L620.412 336.54H623.688L625.08 337.344V344.256ZM620.7 337.98V343.62H623.4V337.98H620.7ZM619.02 356.408V354.836L621.18 353.6H622.62V360.56H624.54V362H619.02V360.56H620.94V355.304L619.02 356.408ZM625.08 378.256L623.688 379.06H620.412L619.02 378.256V371.344L620.412 370.54H623.688L625.08 371.344V378.256ZM620.7 371.98V377.62H623.4V371.98H620.7ZM619.02 390.408V388.836L621.18 387.6H622.62V394.56H624.54V396H619.02V394.56H620.94V389.304L619.02 390.408ZM625.08 412.256L623.688 413.06H620.412L619.02 412.256V405.344L620.412 404.54H623.688L625.08 405.344V412.256ZM620.7 405.98V411.62H623.4V405.98H620.7ZM619.02 424.408V422.836L621.18 421.6H622.62V428.56H624.54V430H619.02V428.56H620.94V423.304L619.02 424.408ZM625.08 446.256L623.688 447.06H620.412L619.02 446.256V439.344L620.412 438.54H623.688L625.08 439.344V446.256ZM620.7 439.98V445.62H623.4V439.98H620.7ZM625.08 463.256L623.688 464.06H620.412L619.02 463.256V456.344L620.412 455.54H623.688L625.08 456.344V463.256ZM620.7 456.98V462.62H623.4V456.98H620.7ZM625.08 480.256L623.688 481.06H620.412L619.02 480.256V473.344L620.412 472.54H623.688L625.08 473.344V480.256ZM620.7 473.98V479.62H623.4V473.98H620.7ZM619.02 492.408V490.836L621.18 489.6H622.62V496.56H624.54V498H619.02V496.56H620.94V491.304L619.02 492.408ZM619.02 509.408V507.836L621.18 506.6H622.62V513.56H624.54V515H619.02V513.56H620.94V508.304L619.02 509.408ZM619.02 526.408V524.836L621.18 523.6H622.62V530.56H624.54V532H619.02V530.56H620.94V525.304L619.02 526.408ZM625.08 548.256L623.688 549.06H620.412L619.02 548.256V541.344L620.412 540.54H623.688L625.08 541.344V548.256ZM620.7 541.98V547.62H623.4V541.98H620.7ZM625.08 565.256L623.688 566.06H620.412L619.02 565.256V558.344L620.412 557.54H623.688L625.08 558.344V565.256ZM620.7 558.98V564.62H623.4V558.98H620.7ZM625.08 582.256L623.688 583.06H620.412L619.02 582.256V575.344L620.412 574.54H623.688L625.08 575.344V582.256ZM620.7 575.98V581.62H623.4V575.98H620.7ZM619.02 594.408V592.836L621.18 591.6H622.62V598.56H624.54V600H619.02V598.56H620.94V593.304L619.02 594.408ZM619.02 611.408V609.836L621.18 608.6H622.62V615.56H624.54V617H619.02V615.56H620.94V610.304L619.02 611.408ZM625.08 633.256L623.688 634.06H620.412L619.02 633.256V626.344L620.412 625.54H623.688L625.08 626.344V633.256ZM620.7 626.98V632.62H623.4V626.98H620.7ZM625.08 650.256L623.688 651.06H620.412L619.02 650.256V643.344L620.412 642.54H623.688L625.08 643.344V650.256ZM620.7 643.98V649.62H623.4V643.98H620.7ZM625.08 667.256L623.688 668.06H620.412L619.02 667.256V660.344L620.412 659.54H623.688L625.08 660.344V667.256ZM620.7 660.98V666.62H623.4V660.98H620.7ZM625.08 684.256L623.688 685.06H620.412L619.02 684.256V677.344L620.412 676.54H623.688L625.08 677.344V684.256ZM620.7 677.98V683.62H623.4V677.98H620.7ZM619.02 696.408V694.836L621.18 693.6H622.62V700.56H624.54V702H619.02V700.56H620.94V695.304L619.02 696.408ZM619.02 713.408V711.836L621.18 710.6H622.62V717.56H624.54V719H619.02V717.56H620.94V712.304L619.02 713.408ZM619.02 730.408V728.836L621.18 727.6H622.62V734.56H624.54V736H619.02V734.56H620.94V729.304L619.02 730.408ZM625.08 752.256L623.688 753.06H620.412L619.02 752.256V745.344L620.412 744.54H623.688L625.08 745.344V752.256ZM620.7 745.98V751.62H623.4V745.98H620.7ZM619.02 764.408V762.836L621.18 761.6H622.62V768.56H624.54V770H619.02V768.56H620.94V763.304L619.02 764.408ZM619.02 781.408V779.836L621.18 778.6H622.62V785.56H624.54V787H619.02V785.56H620.94V780.304L619.02 781.408ZM625.08 803.256L623.688 804.06H620.412L619.02 803.256V796.344L620.412 795.54H623.688L625.08 796.344V803.256ZM620.7 796.98V802.62H623.4V796.98H620.7ZM619.02 815.408V813.836L621.18 812.6H622.62V819.56H624.54V821H619.02V819.56H620.94V814.304L619.02 815.408ZM625.08 837.256L623.688 838.06H620.412L619.02 837.256V830.344L620.412 829.54H623.688L625.08 830.344V837.256ZM620.7 830.98V836.62H623.4V830.98H620.7ZM619.02 849.408V847.836L621.18 846.6H622.62V853.56H624.54V855H619.02V853.56H620.94V848.304L619.02 849.408ZM625.08 871.256L623.688 872.06H620.412L619.02 871.256V864.344L620.412 863.54H623.688L625.08 864.344V871.256ZM620.7 864.98V870.62H623.4V864.98H620.7ZM619.02 883.408V881.836L621.18 880.6H622.62V887.56H624.54V889H619.02V887.56H620.94V882.304L619.02 883.408ZM625.08 905.256L623.688 906.06H620.412L619.02 905.256V898.344L620.412 897.54H623.688L625.08 898.344V905.256ZM620.7 898.98V904.62H623.4V898.98H620.7ZM619.02 917.408V915.836L621.18 914.6H622.62V921.56H624.54V923H619.02V921.56H620.94V916.304L619.02 917.408ZM625.08 939.256L623.688 940.06H620.412L619.02 939.256V932.344L620.412 931.54H623.688L625.08 932.344V939.256ZM620.7 932.98V938.62H623.4V932.98H620.7ZM619.02 951.408V949.836L621.18 948.6H622.62V955.56H624.54V957H619.02V955.56H620.94V950.304L619.02 951.408ZM625.08 973.256L623.688 974.06H620.412L619.02 973.256V966.344L620.412 965.54H623.688L625.08 966.344V973.256ZM620.7 966.98V972.62H623.4V966.98H620.7ZM625.08 990.256L623.688 991.06H620.412L619.02 990.256V983.344L620.412 982.54H623.688L625.08 983.344V990.256ZM620.7 983.98V989.62H623.4V983.98H620.7ZM619.02 1002.41V1000.84L621.18 999.6H622.62V1006.56H624.54V1008H619.02V1006.56H620.94V1001.3L619.02 1002.41ZM625.08 1024.26L623.688 1025.06H620.412L619.02 1024.26V1017.34L620.412 1016.54H623.688L625.08 1017.34V1024.26ZM620.7 1017.98V1023.62H623.4V1017.98H620.7ZM619.02 1036.41V1034.84L621.18 1033.6H622.62V1040.56H624.54V1042H619.02V1040.56H620.94V1035.3L619.02 1036.41ZM625.08 1058.26L623.688 1059.06H620.412L619.02 1058.26V1051.34L620.412 1050.54H623.688L625.08 1051.34V1058.26ZM620.7 1051.98V1057.62H623.4V1051.98H620.7ZM619.02 1070.41V1068.84L621.18 1067.6H622.62V1074.56H624.54V1076H619.02V1074.56H620.94V1069.3L619.02 1070.41ZM619.02 1087.41V1085.84L621.18 1084.6H622.62V1091.56H624.54V1093H619.02V1091.56H620.94V1086.3L619.02 1087.41ZM619.02 1104.41V1102.84L621.18 1101.6H622.62V1108.56H624.54V1110H619.02V1108.56H620.94V1103.3L619.02 1104.41ZM619.02 1121.41V1119.84L621.18 1118.6H622.62V1125.56H624.54V1127H619.02V1125.56H620.94V1120.3L619.02 1121.41ZM625.08 1143.26L623.688 1144.06H620.412L619.02 1143.26V1136.34L620.412 1135.54H623.688L625.08 1136.34V1143.26ZM620.7 1136.98V1142.62H623.4V1136.98H620.7ZM619.02 1155.41V1153.84L621.18 1152.6H622.62V1159.56H624.54V1161H619.02V1159.56H620.94V1154.3L619.02 1155.41ZM625.08 1177.26L623.688 1178.06H620.412L619.02 1177.26V1170.34L620.412 1169.54H623.688L625.08 1170.34V1177.26ZM620.7 1170.98V1176.62H623.4V1170.98H620.7ZM625.08 1194.26L623.688 1195.06H620.412L619.02 1194.26V1187.34L620.412 1186.54H623.688L625.08 1187.34V1194.26ZM620.7 1187.98V1193.62H623.4V1187.98H620.7ZM619.02 1206.41V1204.84L621.18 1203.6H622.62V1210.56H624.54V1212H619.02V1210.56H620.94V1205.3L619.02 1206.41Z" fill="url(#paint2_linear_161_909)"/>
<path opacity="0.7" d="M280.03 529.946L278.058 531.085H273.417L271.445 529.946V520.154L273.417 519.015H278.058L280.03 520.154V529.946ZM273.825 521.055V529.045H277.65V521.055H273.825ZM271.445 547.078V544.851L274.505 543.1H276.545V552.96H279.265V555H271.445V552.96H274.165V545.514L271.445 547.078ZM280.03 577.946L278.058 579.085H273.417L271.445 577.946V568.154L273.417 567.015H278.058L280.03 568.154V577.946ZM273.825 569.055V577.045H277.65V569.055H273.825ZM271.445 595.078V592.851L274.505 591.1H276.545V600.96H279.265V603H271.445V600.96H274.165V593.514L271.445 595.078ZM280.03 625.946L278.058 627.085H273.417L271.445 625.946V616.154L273.417 615.015H278.058L280.03 616.154V625.946ZM273.825 617.055V625.045H277.65V617.055H273.825ZM271.445 643.078V640.851L274.505 639.1H276.545V648.96H279.265V651H271.445V648.96H274.165V641.514L271.445 643.078ZM280.03 673.946L278.058 675.085H273.417L271.445 673.946V664.154L273.417 663.015H278.058L280.03 664.154V673.946ZM273.825 665.055V673.045H277.65V665.055H273.825ZM271.445 691.078V688.851L274.505 687.1H276.545V696.96H279.265V699H271.445V696.96H274.165V689.514L271.445 691.078ZM280.03 721.946L278.058 723.085H273.417L271.445 721.946V712.154L273.417 711.015H278.058L280.03 712.154V721.946ZM273.825 713.055V721.045H277.65V713.055H273.825ZM280.03 745.946L278.058 747.085H273.417L271.445 745.946V736.154L273.417 735.015H278.058L280.03 736.154V745.946ZM273.825 737.055V745.045H277.65V737.055H273.825ZM280.03 769.946L278.058 771.085H273.417L271.445 769.946V760.154L273.417 759.015H278.058L280.03 760.154V769.946ZM273.825 761.055V769.045H277.65V761.055H273.825ZM271.445 787.078V784.851L274.505 783.1H276.545V792.96H279.265V795H271.445V792.96H274.165V785.514L271.445 787.078ZM271.445 811.078V808.851L274.505 807.1H276.545V816.96H279.265V819H271.445V816.96H274.165V809.514L271.445 811.078ZM271.445 835.078V832.851L274.505 831.1H276.545V840.96H279.265V843H271.445V840.96H274.165V833.514L271.445 835.078ZM280.03 865.946L278.058 867.085H273.417L271.445 865.946V856.154L273.417 855.015H278.058L280.03 856.154V865.946ZM273.825 857.055V865.045H277.65V857.055H273.825ZM280.03 889.946L278.058 891.085H273.417L271.445 889.946V880.154L273.417 879.015H278.058L280.03 880.154V889.946ZM273.825 881.055V889.045H277.65V881.055H273.825ZM280.03 913.946L278.058 915.085H273.417L271.445 913.946V904.154L273.417 903.015H278.058L280.03 904.154V913.946ZM273.825 905.055V913.045H277.65V905.055H273.825ZM271.445 931.078V928.851L274.505 927.1H276.545V936.96H279.265V939H271.445V936.96H274.165V929.514L271.445 931.078ZM271.445 955.078V952.851L274.505 951.1H276.545V960.96H279.265V963H271.445V960.96H274.165V953.514L271.445 955.078ZM280.03 985.946L278.058 987.085H273.417L271.445 985.946V976.154L273.417 975.015H278.058L280.03 976.154V985.946ZM273.825 977.055V985.045H277.65V977.055H273.825ZM280.03 1009.95L278.058 1011.09H273.417L271.445 1009.95V1000.15L273.417 999.015H278.058L280.03 1000.15V1009.95ZM273.825 1001.05V1009.04H277.65V1001.05H273.825ZM280.03 1033.95L278.058 1035.09H273.417L271.445 1033.95V1024.15L273.417 1023.01H278.058L280.03 1024.15V1033.95ZM273.825 1025.05V1033.04H277.65V1025.05H273.825ZM280.03 1057.95L278.058 1059.09H273.417L271.445 1057.95V1048.15L273.417 1047.01H278.058L280.03 1048.15V1057.95ZM273.825 1049.05V1057.04H277.65V1049.05H273.825ZM271.445 1075.08V1072.85L274.505 1071.1H276.545V1080.96H279.265V1083H271.445V1080.96H274.165V1073.51L271.445 1075.08ZM271.445 1099.08V1096.85L274.505 1095.1H276.545V1104.96H279.265V1107H271.445V1104.96H274.165V1097.51L271.445 1099.08ZM271.445 1123.08V1120.85L274.505 1119.1H276.545V1128.96H279.265V1131H271.445V1128.96H274.165V1121.51L271.445 1123.08ZM280.03 1153.95L278.058 1155.09H273.417L271.445 1153.95V1144.15L273.417 1143.01H278.058L280.03 1144.15V1153.95ZM273.825 1145.05V1153.04H277.65V1145.05H273.825ZM271.445 1171.08V1168.85L274.505 1167.1H276.545V1176.96H279.265V1179H271.445V1176.96H274.165V1169.51L271.445 1171.08ZM271.445 1195.08V1192.85L274.505 1191.1H276.545V1200.96H279.265V1203H271.445V1200.96H274.165V1193.51L271.445 1195.08Z" fill="url(#paint3_linear_161_909)"/>
<path d="M1175.08 818.256L1173.69 819.06H1170.41L1169.02 818.256V811.344L1170.41 810.54H1173.69L1175.08 811.344V818.256ZM1170.7 811.98V817.62H1173.4V811.98H1170.7ZM1169.02 830.408V828.836L1171.18 827.6H1172.62V834.56H1174.54V836H1169.02V834.56H1170.94V829.304L1169.02 830.408ZM1175.08 852.256L1173.69 853.06H1170.41L1169.02 852.256V845.344L1170.41 844.54H1173.69L1175.08 845.344V852.256ZM1170.7 845.98V851.62H1173.4V845.98H1170.7ZM1169.02 864.408V862.836L1171.18 861.6H1172.62V868.56H1174.54V870H1169.02V868.56H1170.94V863.304L1169.02 864.408ZM1175.08 886.256L1173.69 887.06H1170.41L1169.02 886.256V879.344L1170.41 878.54H1173.69L1175.08 879.344V886.256ZM1170.7 879.98V885.62H1173.4V879.98H1170.7ZM1169.02 898.408V896.836L1171.18 895.6H1172.62V902.56H1174.54V904H1169.02V902.56H1170.94V897.304L1169.02 898.408ZM1175.08 920.256L1173.69 921.06H1170.41L1169.02 920.256V913.344L1170.41 912.54H1173.69L1175.08 913.344V920.256ZM1170.7 913.98V919.62H1173.4V913.98H1170.7ZM1169.02 932.408V930.836L1171.18 929.6H1172.62V936.56H1174.54V938H1169.02V936.56H1170.94V931.304L1169.02 932.408ZM1175.08 954.256L1173.69 955.06H1170.41L1169.02 954.256V947.344L1170.41 946.54H1173.69L1175.08 947.344V954.256ZM1170.7 947.98V953.62H1173.4V947.98H1170.7ZM1175.08 971.256L1173.69 972.06H1170.41L1169.02 971.256V964.344L1170.41 963.54H1173.69L1175.08 964.344V971.256ZM1170.7 964.98V970.62H1173.4V964.98H1170.7ZM1175.08 988.256L1173.69 989.06H1170.41L1169.02 988.256V981.344L1170.41 980.54H1173.69L1175.08 981.344V988.256ZM1170.7 981.98V987.62H1173.4V981.98H1170.7ZM1169.02 1000.41V998.836L1171.18 997.6H1172.62V1004.56H1174.54V1006H1169.02V1004.56H1170.94V999.304L1169.02 1000.41ZM1169.02 1017.41V1015.84L1171.18 1014.6H1172.62V1021.56H1174.54V1023H1169.02V1021.56H1170.94V1016.3L1169.02 1017.41ZM1169.02 1034.41V1032.84L1171.18 1031.6H1172.62V1038.56H1174.54V1040H1169.02V1038.56H1170.94V1033.3L1169.02 1034.41ZM1175.08 1056.26L1173.69 1057.06H1170.41L1169.02 1056.26V1049.34L1170.41 1048.54H1173.69L1175.08 1049.34V1056.26ZM1170.7 1049.98V1055.62H1173.4V1049.98H1170.7ZM1175.08 1073.26L1173.69 1074.06H1170.41L1169.02 1073.26V1066.34L1170.41 1065.54H1173.69L1175.08 1066.34V1073.26ZM1170.7 1066.98V1072.62H1173.4V1066.98H1170.7ZM1175.08 1090.26L1173.69 1091.06H1170.41L1169.02 1090.26V1083.34L1170.41 1082.54H1173.69L1175.08 1083.34V1090.26ZM1170.7 1083.98V1089.62H1173.4V1083.98H1170.7ZM1169.02 1102.41V1100.84L1171.18 1099.6H1172.62V1106.56H1174.54V1108H1169.02V1106.56H1170.94V1101.3L1169.02 1102.41ZM1169.02 1119.41V1117.84L1171.18 1116.6H1172.62V1123.56H1174.54V1125H1169.02V1123.56H1170.94V1118.3L1169.02 1119.41ZM1175.08 1141.26L1173.69 1142.06H1170.41L1169.02 1141.26V1134.34L1170.41 1133.54H1173.69L1175.08 1134.34V1141.26ZM1170.7 1134.98V1140.62H1173.4V1134.98H1170.7ZM1175.08 1158.26L1173.69 1159.06H1170.41L1169.02 1158.26V1151.34L1170.41 1150.54H1173.69L1175.08 1151.34V1158.26ZM1170.7 1151.98V1157.62H1173.4V1151.98H1170.7ZM1175.08 1175.26L1173.69 1176.06H1170.41L1169.02 1175.26V1168.34L1170.41 1167.54H1173.69L1175.08 1168.34V1175.26ZM1170.7 1168.98V1174.62H1173.4V1168.98H1170.7ZM1175.08 1192.26L1173.69 1193.06H1170.41L1169.02 1192.26V1185.34L1170.41 1184.54H1173.69L1175.08 1185.34V1192.26ZM1170.7 1185.98V1191.62H1173.4V1185.98H1170.7ZM1169.02 1204.41V1202.84L1171.18 1201.6H1172.62V1208.56H1174.54V1210H1169.02V1208.56H1170.94V1203.3L1169.02 1204.41ZM1169.02 1221.41V1219.84L1171.18 1218.6H1172.62V1225.56H1174.54V1227H1169.02V1225.56H1170.94V1220.3L1169.02 1221.41ZM1169.02 1238.41V1236.84L1171.18 1235.6H1172.62V1242.56H1174.54V1244H1169.02V1242.56H1170.94V1237.3L1169.02 1238.41ZM1175.08 1260.26L1173.69 1261.06H1170.41L1169.02 1260.26V1253.34L1170.41 1252.54H1173.69L1175.08 1253.34V1260.26ZM1170.7 1253.98V1259.62H1173.4V1253.98H1170.7ZM1169.02 1272.41V1270.84L1171.18 1269.6H1172.62V1276.56H1174.54V1278H1169.02V1276.56H1170.94V1271.3L1169.02 1272.41ZM1169.02 1289.41V1287.84L1171.18 1286.6H1172.62V1293.56H1174.54V1295H1169.02V1293.56H1170.94V1288.3L1169.02 1289.41Z" fill="url(#paint4_linear_161_909)"/>
<path opacity="0.3" d="M733.62 1234.88L731.532 1236.09H726.618L724.53 1234.88V1224.52L726.618 1223.31H731.532L733.62 1224.52V1234.88ZM727.05 1225.47V1233.93H731.1V1225.47H727.05ZM724.53 1253.61V1251.25L727.77 1249.4H729.93V1259.84H732.81V1262H724.53V1259.84H727.41V1251.96L724.53 1253.61ZM733.62 1286.88L731.532 1288.09H726.618L724.53 1286.88V1276.52L726.618 1275.31H731.532L733.62 1276.52V1286.88ZM727.05 1277.47V1285.93H731.1V1277.47H727.05ZM724.53 1305.61V1303.25L727.77 1301.4H729.93V1311.84H732.81V1314H724.53V1311.84H727.41V1303.96L724.53 1305.61ZM733.62 1338.88L731.532 1340.09H726.618L724.53 1338.88V1328.52L726.618 1327.31H731.532L733.62 1328.52V1338.88ZM727.05 1329.47V1337.93H731.1V1329.47H727.05ZM724.53 1357.61V1355.25L727.77 1353.4H729.93V1363.84H732.81V1366H724.53V1363.84H727.41V1355.96L724.53 1357.61ZM733.62 1390.88L731.532 1392.09H726.618L724.53 1390.88V1380.52L726.618 1379.31H731.532L733.62 1380.52V1390.88ZM727.05 1381.47V1389.93H731.1V1381.47H727.05ZM724.53 1409.61V1407.25L727.77 1405.4H729.93V1415.84H732.81V1418H724.53V1415.84H727.41V1407.96L724.53 1409.61ZM733.62 1442.88L731.532 1444.09H726.618L724.53 1442.88V1432.52L726.618 1431.31H731.532L733.62 1432.52V1442.88ZM727.05 1433.47V1441.93H731.1V1433.47H727.05ZM733.62 1468.88L731.532 1470.09H726.618L724.53 1468.88V1458.52L726.618 1457.31H731.532L733.62 1458.52V1468.88ZM727.05 1459.47V1467.93H731.1V1459.47H727.05ZM733.62 1494.88L731.532 1496.09H726.618L724.53 1494.88V1484.52L726.618 1483.31H731.532L733.62 1484.52V1494.88ZM727.05 1485.47V1493.93H731.1V1485.47H727.05ZM724.53 1513.61V1511.25L727.77 1509.4H729.93V1519.84H732.81V1522H724.53V1519.84H727.41V1511.96L724.53 1513.61ZM724.53 1539.61V1537.25L727.77 1535.4H729.93V1545.84H732.81V1548H724.53V1545.84H727.41V1537.96L724.53 1539.61ZM724.53 1565.61V1563.25L727.77 1561.4H729.93V1571.84H732.81V1574H724.53V1571.84H727.41V1563.96L724.53 1565.61ZM733.62 1598.88L731.532 1600.09H726.618L724.53 1598.88V1588.52L726.618 1587.31H731.532L733.62 1588.52V1598.88ZM727.05 1589.47V1597.93H731.1V1589.47H727.05ZM733.62 1624.88L731.532 1626.09H726.618L724.53 1624.88V1614.52L726.618 1613.31H731.532L733.62 1614.52V1624.88ZM727.05 1615.47V1623.93H731.1V1615.47H727.05ZM733.62 1650.88L731.532 1652.09H726.618L724.53 1650.88V1640.52L726.618 1639.31H731.532L733.62 1640.52V1650.88ZM727.05 1641.47V1649.93H731.1V1641.47H727.05ZM724.53 1669.61V1667.25L727.77 1665.4H729.93V1675.84H732.81V1678H724.53V1675.84H727.41V1667.96L724.53 1669.61ZM724.53 1695.61V1693.25L727.77 1691.4H729.93V1701.84H732.81V1704H724.53V1701.84H727.41V1693.96L724.53 1695.61ZM733.62 1728.88L731.532 1730.09H726.618L724.53 1728.88V1718.52L726.618 1717.31H731.532L733.62 1718.52V1728.88ZM727.05 1719.47V1727.93H731.1V1719.47H727.05ZM733.62 1754.88L731.532 1756.09H726.618L724.53 1754.88V1744.52L726.618 1743.31H731.532L733.62 1744.52V1754.88ZM727.05 1745.47V1753.93H731.1V1745.47H727.05ZM733.62 1780.88L731.532 1782.09H726.618L724.53 1780.88V1770.52L726.618 1769.31H731.532L733.62 1770.52V1780.88ZM727.05 1771.47V1779.93H731.1V1771.47H727.05ZM733.62 1806.88L731.532 1808.09H726.618L724.53 1806.88V1796.52L726.618 1795.31H731.532L733.62 1796.52V1806.88ZM727.05 1797.47V1805.93H731.1V1797.47H727.05ZM724.53 1825.61V1823.25L727.77 1821.4H729.93V1831.84H732.81V1834H724.53V1831.84H727.41V1823.96L724.53 1825.61ZM724.53 1851.61V1849.25L727.77 1847.4H729.93V1857.84H732.81V1860H724.53V1857.84H727.41V1849.96L724.53 1851.61ZM724.53 1877.61V1875.25L727.77 1873.4H729.93V1883.84H732.81V1886H724.53V1883.84H727.41V1875.96L724.53 1877.61ZM733.62 1910.88L731.532 1912.09H726.618L724.53 1910.88V1900.52L726.618 1899.31H731.532L733.62 1900.52V1910.88ZM727.05 1901.47V1909.93H731.1V1901.47H727.05ZM724.53 1929.61V1927.25L727.77 1925.4H729.93V1935.84H732.81V1938H724.53V1935.84H727.41V1927.96L724.53 1929.61ZM724.53 1955.61V1953.25L727.77 1951.4H729.93V1961.84H732.81V1964H724.53V1961.84H727.41V1953.96L724.53 1955.61Z" fill="url(#paint5_linear_161_909)"/>
<path opacity="0.7" d="M1589.62 1011.88L1587.53 1013.09H1582.62L1580.53 1011.88V1001.52L1582.62 1000.31H1587.53L1589.62 1001.52V1011.88ZM1583.05 1002.47V1010.93H1587.1V1002.47H1583.05ZM1580.53 1030.61V1028.25L1583.77 1026.4H1585.93V1036.84H1588.81V1039H1580.53V1036.84H1583.41V1028.96L1580.53 1030.61ZM1589.62 1063.88L1587.53 1065.09H1582.62L1580.53 1063.88V1053.52L1582.62 1052.31H1587.53L1589.62 1053.52V1063.88ZM1583.05 1054.47V1062.93H1587.1V1054.47H1583.05ZM1580.53 1082.61V1080.25L1583.77 1078.4H1585.93V1088.84H1588.81V1091H1580.53V1088.84H1583.41V1080.96L1580.53 1082.61ZM1589.62 1115.88L1587.53 1117.09H1582.62L1580.53 1115.88V1105.52L1582.62 1104.31H1587.53L1589.62 1105.52V1115.88ZM1583.05 1106.47V1114.93H1587.1V1106.47H1583.05ZM1580.53 1134.61V1132.25L1583.77 1130.4H1585.93V1140.84H1588.81V1143H1580.53V1140.84H1583.41V1132.96L1580.53 1134.61ZM1589.62 1167.88L1587.53 1169.09H1582.62L1580.53 1167.88V1157.52L1582.62 1156.31H1587.53L1589.62 1157.52V1167.88ZM1583.05 1158.47V1166.93H1587.1V1158.47H1583.05ZM1580.53 1186.61V1184.25L1583.77 1182.4H1585.93V1192.84H1588.81V1195H1580.53V1192.84H1583.41V1184.96L1580.53 1186.61ZM1589.62 1219.88L1587.53 1221.09H1582.62L1580.53 1219.88V1209.52L1582.62 1208.31H1587.53L1589.62 1209.52V1219.88ZM1583.05 1210.47V1218.93H1587.1V1210.47H1583.05ZM1589.62 1245.88L1587.53 1247.09H1582.62L1580.53 1245.88V1235.52L1582.62 1234.31H1587.53L1589.62 1235.52V1245.88ZM1583.05 1236.47V1244.93H1587.1V1236.47H1583.05ZM1589.62 1271.88L1587.53 1273.09H1582.62L1580.53 1271.88V1261.52L1582.62 1260.31H1587.53L1589.62 1261.52V1271.88ZM1583.05 1262.47V1270.93H1587.1V1262.47H1583.05ZM1580.53 1290.61V1288.25L1583.77 1286.4H1585.93V1296.84H1588.81V1299H1580.53V1296.84H1583.41V1288.96L1580.53 1290.61ZM1580.53 1316.61V1314.25L1583.77 1312.4H1585.93V1322.84H1588.81V1325H1580.53V1322.84H1583.41V1314.96L1580.53 1316.61ZM1580.53 1342.61V1340.25L1583.77 1338.4H1585.93V1348.84H1588.81V1351H1580.53V1348.84H1583.41V1340.96L1580.53 1342.61ZM1589.62 1375.88L1587.53 1377.09H1582.62L1580.53 1375.88V1365.52L1582.62 1364.31H1587.53L1589.62 1365.52V1375.88ZM1583.05 1366.47V1374.93H1587.1V1366.47H1583.05ZM1589.62 1401.88L1587.53 1403.09H1582.62L1580.53 1401.88V1391.52L1582.62 1390.31H1587.53L1589.62 1391.52V1401.88ZM1583.05 1392.47V1400.93H1587.1V1392.47H1583.05ZM1589.62 1427.88L1587.53 1429.09H1582.62L1580.53 1427.88V1417.52L1582.62 1416.31H1587.53L1589.62 1417.52V1427.88ZM1583.05 1418.47V1426.93H1587.1V1418.47H1583.05ZM1580.53 1446.61V1444.25L1583.77 1442.4H1585.93V1452.84H1588.81V1455H1580.53V1452.84H1583.41V1444.96L1580.53 1446.61ZM1580.53 1472.61V1470.25L1583.77 1468.4H1585.93V1478.84H1588.81V1481H1580.53V1478.84H1583.41V1470.96L1580.53 1472.61ZM1589.62 1505.88L1587.53 1507.09H1582.62L1580.53 1505.88V1495.52L1582.62 1494.31H1587.53L1589.62 1495.52V1505.88ZM1583.05 1496.47V1504.93H1587.1V1496.47H1583.05ZM1589.62 1531.88L1587.53 1533.09H1582.62L1580.53 1531.88V1521.52L1582.62 1520.31H1587.53L1589.62 1521.52V1531.88ZM1583.05 1522.47V1530.93H1587.1V1522.47H1583.05ZM1589.62 1557.88L1587.53 1559.09H1582.62L1580.53 1557.88V1547.52L1582.62 1546.31H1587.53L1589.62 1547.52V1557.88ZM1583.05 1548.47V1556.93H1587.1V1548.47H1583.05ZM1589.62 1583.88L1587.53 1585.09H1582.62L1580.53 1583.88V1573.52L1582.62 1572.31H1587.53L1589.62 1573.52V1583.88ZM1583.05 1574.47V1582.93H1587.1V1574.47H1583.05ZM1580.53 1602.61V1600.25L1583.77 1598.4H1585.93V1608.84H1588.81V1611H1580.53V1608.84H1583.41V1600.96L1580.53 1602.61ZM1580.53 1628.61V1626.25L1583.77 1624.4H1585.93V1634.84H1588.81V1637H1580.53V1634.84H1583.41V1626.96L1580.53 1628.61ZM1580.53 1654.61V1652.25L1583.77 1650.4H1585.93V1660.84H1588.81V1663H1580.53V1660.84H1583.41V1652.96L1580.53 1654.61ZM1589.62 1687.88L1587.53 1689.09H1582.62L1580.53 1687.88V1677.52L1582.62 1676.31H1587.53L1589.62 1677.52V1687.88ZM1583.05 1678.47V1686.93H1587.1V1678.47H1583.05ZM1580.53 1706.61V1704.25L1583.77 1702.4H1585.93V1712.84H1588.81V1715H1580.53V1712.84H1583.41V1704.96L1580.53 1706.61ZM1580.53 1732.61V1730.25L1583.77 1728.4H1585.93V1738.84H1588.81V1741H1580.53V1738.84H1583.41V1730.96L1580.53 1732.61Z" fill="url(#paint6_linear_161_909)"/>
<path opacity="0.3" d="M1718.26 189.132L1716.64 190.07H1712.81L1711.19 189.132V181.068L1712.81 180.13H1716.64L1718.26 181.068V189.132ZM1713.15 181.81V188.39H1716.3V181.81H1713.15ZM1711.19 203.476V201.642L1713.71 200.2H1715.39V208.32H1717.63V210H1711.19V208.32H1713.43V202.188L1711.19 203.476ZM1718.26 229.132L1716.64 230.07H1712.81L1711.19 229.132V221.068L1712.81 220.13H1716.64L1718.26 221.068V229.132ZM1713.15 221.81V228.39H1716.3V221.81H1713.15ZM1711.19 243.476V241.642L1713.71 240.2H1715.39V248.32H1717.63V250H1711.19V248.32H1713.43V242.188L1711.19 243.476ZM1718.26 269.132L1716.64 270.07H1712.81L1711.19 269.132V261.068L1712.81 260.13H1716.64L1718.26 261.068V269.132ZM1713.15 261.81V268.39H1716.3V261.81H1713.15ZM1711.19 283.476V281.642L1713.71 280.2H1715.39V288.32H1717.63V290H1711.19V288.32H1713.43V282.188L1711.19 283.476ZM1718.26 309.132L1716.64 310.07H1712.81L1711.19 309.132V301.068L1712.81 300.13H1716.64L1718.26 301.068V309.132ZM1713.15 301.81V308.39H1716.3V301.81H1713.15ZM1711.19 323.476V321.642L1713.71 320.2H1715.39V328.32H1717.63V330H1711.19V328.32H1713.43V322.188L1711.19 323.476ZM1718.26 349.132L1716.64 350.07H1712.81L1711.19 349.132V341.068L1712.81 340.13H1716.64L1718.26 341.068V349.132ZM1713.15 341.81V348.39H1716.3V341.81H1713.15ZM1718.26 369.132L1716.64 370.07H1712.81L1711.19 369.132V361.068L1712.81 360.13H1716.64L1718.26 361.068V369.132ZM1713.15 361.81V368.39H1716.3V361.81H1713.15ZM1718.26 389.132L1716.64 390.07H1712.81L1711.19 389.132V381.068L1712.81 380.13H1716.64L1718.26 381.068V389.132ZM1713.15 381.81V388.39H1716.3V381.81H1713.15ZM1711.19 403.476V401.642L1713.71 400.2H1715.39V408.32H1717.63V410H1711.19V408.32H1713.43V402.188L1711.19 403.476ZM1711.19 423.476V421.642L1713.71 420.2H1715.39V428.32H1717.63V430H1711.19V428.32H1713.43V422.188L1711.19 423.476ZM1711.19 443.476V441.642L1713.71 440.2H1715.39V448.32H1717.63V450H1711.19V448.32H1713.43V442.188L1711.19 443.476ZM1718.26 469.132L1716.64 470.07H1712.81L1711.19 469.132V461.068L1712.81 460.13H1716.64L1718.26 461.068V469.132ZM1713.15 461.81V468.39H1716.3V461.81H1713.15ZM1718.26 489.132L1716.64 490.07H1712.81L1711.19 489.132V481.068L1712.81 480.13H1716.64L1718.26 481.068V489.132ZM1713.15 481.81V488.39H1716.3V481.81H1713.15ZM1718.26 509.132L1716.64 510.07H1712.81L1711.19 509.132V501.068L1712.81 500.13H1716.64L1718.26 501.068V509.132ZM1713.15 501.81V508.39H1716.3V501.81H1713.15ZM1711.19 523.476V521.642L1713.71 520.2H1715.39V528.32H1717.63V530H1711.19V528.32H1713.43V522.188L1711.19 523.476ZM1711.19 543.476V541.642L1713.71 540.2H1715.39V548.32H1717.63V550H1711.19V548.32H1713.43V542.188L1711.19 543.476ZM1718.26 569.132L1716.64 570.07H1712.81L1711.19 569.132V561.068L1712.81 560.13H1716.64L1718.26 561.068V569.132ZM1713.15 561.81V568.39H1716.3V561.81H1713.15ZM1718.26 589.132L1716.64 590.07H1712.81L1711.19 589.132V581.068L1712.81 580.13H1716.64L1718.26 581.068V589.132ZM1713.15 581.81V588.39H1716.3V581.81H1713.15ZM1718.26 609.132L1716.64 610.07H1712.81L1711.19 609.132V601.068L1712.81 600.13H1716.64L1718.26 601.068V609.132ZM1713.15 601.81V608.39H1716.3V601.81H1713.15ZM1718.26 629.132L1716.64 630.07H1712.81L1711.19 629.132V621.068L1712.81 620.13H1716.64L1718.26 621.068V629.132ZM1713.15 621.81V628.39H1716.3V621.81H1713.15ZM1711.19 643.476V641.642L1713.71 640.2H1715.39V648.32H1717.63V650H1711.19V648.32H1713.43V642.188L1711.19 643.476ZM1711.19 663.476V661.642L1713.71 660.2H1715.39V668.32H1717.63V670H1711.19V668.32H1713.43V662.188L1711.19 663.476ZM1711.19 683.476V681.642L1713.71 680.2H1715.39V688.32H1717.63V690H1711.19V688.32H1713.43V682.188L1711.19 683.476ZM1718.26 709.132L1716.64 710.07H1712.81L1711.19 709.132V701.068L1712.81 700.13H1716.64L1718.26 701.068V709.132ZM1713.15 701.81V708.39H1716.3V701.81H1713.15ZM1711.19 723.476V721.642L1713.71 720.2H1715.39V728.32H1717.63V730H1711.19V728.32H1713.43V722.188L1711.19 723.476ZM1711.19 743.476V741.642L1713.71 740.2H1715.39V748.32H1717.63V750H1711.19V748.32H1713.43V742.188L1711.19 743.476Z" fill="url(#paint7_linear_161_909)"/>
<path opacity="0.7" d="M1614.62 647.884L1612.53 649.09H1607.62L1605.53 647.884V637.516L1607.62 636.31H1612.53L1614.62 637.516V647.884ZM1608.05 638.47V646.93H1612.1V638.47H1608.05ZM1605.53 666.612V664.254L1608.77 662.4H1610.93V672.84H1613.81V675H1605.53V672.84H1608.41V664.956L1605.53 666.612ZM1614.62 699.884L1612.53 701.09H1607.62L1605.53 699.884V689.516L1607.62 688.31H1612.53L1614.62 689.516V699.884ZM1608.05 690.47V698.93H1612.1V690.47H1608.05ZM1605.53 718.612V716.254L1608.77 714.4H1610.93V724.84H1613.81V727H1605.53V724.84H1608.41V716.956L1605.53 718.612ZM1614.62 751.884L1612.53 753.09H1607.62L1605.53 751.884V741.516L1607.62 740.31H1612.53L1614.62 741.516V751.884ZM1608.05 742.47V750.93H1612.1V742.47H1608.05ZM1605.53 770.612V768.254L1608.77 766.4H1610.93V776.84H1613.81V779H1605.53V776.84H1608.41V768.956L1605.53 770.612ZM1614.62 803.884L1612.53 805.09H1607.62L1605.53 803.884V793.516L1607.62 792.31H1612.53L1614.62 793.516V803.884ZM1608.05 794.47V802.93H1612.1V794.47H1608.05ZM1605.53 822.612V820.254L1608.77 818.4H1610.93V828.84H1613.81V831H1605.53V828.84H1608.41V820.956L1605.53 822.612ZM1614.62 855.884L1612.53 857.09H1607.62L1605.53 855.884V845.516L1607.62 844.31H1612.53L1614.62 845.516V855.884ZM1608.05 846.47V854.93H1612.1V846.47H1608.05ZM1614.62 881.884L1612.53 883.09H1607.62L1605.53 881.884V871.516L1607.62 870.31H1612.53L1614.62 871.516V881.884ZM1608.05 872.47V880.93H1612.1V872.47H1608.05ZM1614.62 907.884L1612.53 909.09H1607.62L1605.53 907.884V897.516L1607.62 896.31H1612.53L1614.62 897.516V907.884ZM1608.05 898.47V906.93H1612.1V898.47H1608.05ZM1605.53 926.612V924.254L1608.77 922.4H1610.93V932.84H1613.81V935H1605.53V932.84H1608.41V924.956L1605.53 926.612ZM1605.53 952.612V950.254L1608.77 948.4H1610.93V958.84H1613.81V961H1605.53V958.84H1608.41V950.956L1605.53 952.612ZM1605.53 978.612V976.254L1608.77 974.4H1610.93V984.84H1613.81V987H1605.53V984.84H1608.41V976.956L1605.53 978.612ZM1614.62 1011.88L1612.53 1013.09H1607.62L1605.53 1011.88V1001.52L1607.62 1000.31H1612.53L1614.62 1001.52V1011.88ZM1608.05 1002.47V1010.93H1612.1V1002.47H1608.05ZM1614.62 1037.88L1612.53 1039.09H1607.62L1605.53 1037.88V1027.52L1607.62 1026.31H1612.53L1614.62 1027.52V1037.88ZM1608.05 1028.47V1036.93H1612.1V1028.47H1608.05ZM1614.62 1063.88L1612.53 1065.09H1607.62L1605.53 1063.88V1053.52L1607.62 1052.31H1612.53L1614.62 1053.52V1063.88ZM1608.05 1054.47V1062.93H1612.1V1054.47H1608.05ZM1605.53 1082.61V1080.25L1608.77 1078.4H1610.93V1088.84H1613.81V1091H1605.53V1088.84H1608.41V1080.96L1605.53 1082.61ZM1605.53 1108.61V1106.25L1608.77 1104.4H1610.93V1114.84H1613.81V1117H1605.53V1114.84H1608.41V1106.96L1605.53 1108.61ZM1614.62 1141.88L1612.53 1143.09H1607.62L1605.53 1141.88V1131.52L1607.62 1130.31H1612.53L1614.62 1131.52V1141.88ZM1608.05 1132.47V1140.93H1612.1V1132.47H1608.05ZM1614.62 1167.88L1612.53 1169.09H1607.62L1605.53 1167.88V1157.52L1607.62 1156.31H1612.53L1614.62 1157.52V1167.88ZM1608.05 1158.47V1166.93H1612.1V1158.47H1608.05ZM1614.62 1193.88L1612.53 1195.09H1607.62L1605.53 1193.88V1183.52L1607.62 1182.31H1612.53L1614.62 1183.52V1193.88ZM1608.05 1184.47V1192.93H1612.1V1184.47H1608.05ZM1614.62 1219.88L1612.53 1221.09H1607.62L1605.53 1219.88V1209.52L1607.62 1208.31H1612.53L1614.62 1209.52V1219.88ZM1608.05 1210.47V1218.93H1612.1V1210.47H1608.05ZM1605.53 1238.61V1236.25L1608.77 1234.4H1610.93V1244.84H1613.81V1247H1605.53V1244.84H1608.41V1236.96L1605.53 1238.61ZM1605.53 1264.61V1262.25L1608.77 1260.4H1610.93V1270.84H1613.81V1273H1605.53V1270.84H1608.41V1262.96L1605.53 1264.61ZM1605.53 1290.61V1288.25L1608.77 1286.4H1610.93V1296.84H1613.81V1299H1605.53V1296.84H1608.41V1288.96L1605.53 1290.61ZM1614.62 1323.88L1612.53 1325.09H1607.62L1605.53 1323.88V1313.52L1607.62 1312.31H1612.53L1614.62 1313.52V1323.88ZM1608.05 1314.47V1322.93H1612.1V1314.47H1608.05ZM1605.53 1342.61V1340.25L1608.77 1338.4H1610.93V1348.84H1613.81V1351H1605.53V1348.84H1608.41V1340.96L1605.53 1342.61ZM1605.53 1368.61V1366.25L1608.77 1364.4H1610.93V1374.84H1613.81V1377H1605.53V1374.84H1608.41V1366.96L1605.53 1368.61Z" fill="url(#paint8_linear_161_909)"/>
<path opacity="0.3" d="M83.77 568.814L83.422 569.015H82.603L82.255 568.814V567.086L82.603 566.885H83.422L83.77 567.086V568.814ZM82.675 567.245V568.655H83.35V567.245H82.675ZM84.2794 567.602V567.209L84.8194 566.9H85.1794V568.64H85.6594V569H84.2794V568.64H84.7594V567.326L84.2794 567.602ZM87.5346 568.814L87.1866 569.015H86.3676L86.0196 568.814V567.086L86.3676 566.885H87.1866L87.5346 567.086V568.814ZM86.4396 567.245V568.655H87.1146V567.245H86.4396ZM82.255 571.602V571.209L82.795 570.9H83.155V572.64H83.635V573H82.255V572.64H82.735V571.326L82.255 571.602ZM85.5102 572.814L85.1622 573.015H84.3432L83.9952 572.814V571.086L84.3432 570.885H85.1622L85.5102 571.086V572.814ZM84.4152 571.245V572.655H85.0902V571.245H84.4152ZM86.0196 571.602V571.209L86.5596 570.9H86.9196V572.64H87.3996V573H86.0196V572.64H86.4996V571.326L86.0196 571.602ZM83.77 576.814L83.422 577.015H82.603L82.255 576.814V575.086L82.603 574.885H83.422L83.77 575.086V576.814ZM82.675 575.245V576.655H83.35V575.245H82.675ZM84.2794 575.602V575.209L84.8194 574.9H85.1794V576.64H85.6594V577H84.2794V576.64H84.7594V575.326L84.2794 575.602ZM87.5346 576.814L87.1866 577.015H86.3676L86.0196 576.814V575.086L86.3676 574.885H87.1866L87.5346 575.086V576.814ZM86.4396 575.245V576.655H87.1146V575.245H86.4396ZM83.77 580.814L83.422 581.015H82.603L82.255 580.814V579.086L82.603 578.885H83.422L83.77 579.086V580.814ZM82.675 579.245V580.655H83.35V579.245H82.675ZM85.7944 580.814L85.4464 581.015H84.6274L84.2794 580.814V579.086L84.6274 578.885H85.4464L85.7944 579.086V580.814ZM84.6994 579.245V580.655H85.3744V579.245H84.6994ZM86.3038 579.602V579.209L86.8438 578.9H87.2038V580.64H87.6838V581H86.3038V580.64H86.7838V579.326L86.3038 579.602ZM82.255 583.602V583.209L82.795 582.9H83.155V584.64H83.635V585H82.255V584.64H82.735V583.326L82.255 583.602ZM83.9952 583.602V583.209L84.5352 582.9H84.8952V584.64H85.3752V585H83.9952V584.64H84.4752V583.326L83.9952 583.602ZM87.2505 584.814L86.9025 585.015H86.0835L85.7355 584.814V583.086L86.0835 582.885H86.9025L87.2505 583.086V584.814ZM86.1555 583.245V584.655H86.8305V583.245H86.1555ZM83.77 588.814L83.422 589.015H82.603L82.255 588.814V587.086L82.603 586.885H83.422L83.77 587.086V588.814ZM82.675 587.245V588.655H83.35V587.245H82.675ZM85.7944 588.814L85.4464 589.015H84.6274L84.2794 588.814V587.086L84.6274 586.885H85.4464L85.7944 587.086V588.814ZM84.6994 587.245V588.655H85.3744V587.245H84.6994ZM86.3038 587.602V587.209L86.8438 586.9H87.2038V588.64H87.6838V589H86.3038V588.64H86.7838V587.326L86.3038 587.602ZM82.255 591.602V591.209L82.795 590.9H83.155V592.64H83.635V593H82.255V592.64H82.735V591.326L82.255 591.602ZM85.5102 592.814L85.1622 593.015H84.3432L83.9952 592.814V591.086L84.3432 590.885H85.1622L85.5102 591.086V592.814ZM84.4152 591.245V592.655H85.0902V591.245H84.4152ZM87.5346 592.814L87.1866 593.015H86.3676L86.0196 592.814V591.086L86.3676 590.885H87.1866L87.5346 591.086V592.814ZM86.4396 591.245V592.655H87.1146V591.245H86.4396ZM83.77 596.814L83.422 597.015H82.603L82.255 596.814V595.086L82.603 594.885H83.422L83.77 595.086V596.814ZM82.675 595.245V596.655H83.35V595.245H82.675ZM85.7944 596.814L85.4464 597.015H84.6274L84.2794 596.814V595.086L84.6274 594.885H85.4464L85.7944 595.086V596.814ZM84.6994 595.245V596.655H85.3744V595.245H84.6994ZM86.3038 595.602V595.209L86.8438 594.9H87.2038V596.64H87.6838V597H86.3038V596.64H86.7838V595.326L86.3038 595.602ZM82.255 599.602V599.209L82.795 598.9H83.155V600.64H83.635V601H82.255V600.64H82.735V599.326L82.255 599.602ZM83.9952 599.602V599.209L84.5352 598.9H84.8952V600.64H85.3752V601H83.9952V600.64H84.4752V599.326L83.9952 599.602ZM87.2505 600.814L86.9025 601.015H86.0835L85.7355 600.814V599.086L86.0835 598.885H86.9025L87.2505 599.086V600.814ZM86.1555 599.245V600.655H86.8305V599.245H86.1555ZM82.255 603.602V603.209L82.795 602.9H83.155V604.64H83.635V605H82.255V604.64H82.735V603.326L82.255 603.602ZM83.9952 603.602V603.209L84.5352 602.9H84.8952V604.64H85.3752V605H83.9952V604.64H84.4752V603.326L83.9952 603.602Z" fill="url(#paint9_linear_161_909)"/>
<path opacity="0.3" d="M215.62 99.884L213.532 101.09H208.618L206.53 99.884V89.516L208.618 88.31H213.532L215.62 89.516V99.884ZM209.05 90.47V98.93H213.1V90.47H209.05ZM206.53 118.612V116.254L209.77 114.4H211.93V124.84H214.81V127H206.53V124.84H209.41V116.956L206.53 118.612ZM215.62 151.884L213.532 153.09H208.618L206.53 151.884V141.516L208.618 140.31H213.532L215.62 141.516V151.884ZM209.05 142.47V150.93H213.1V142.47H209.05ZM206.53 170.612V168.254L209.77 166.4H211.93V176.84H214.81V179H206.53V176.84H209.41V168.956L206.53 170.612ZM215.62 203.884L213.532 205.09H208.618L206.53 203.884V193.516L208.618 192.31H213.532L215.62 193.516V203.884ZM209.05 194.47V202.93H213.1V194.47H209.05ZM206.53 222.612V220.254L209.77 218.4H211.93V228.84H214.81V231H206.53V228.84H209.41V220.956L206.53 222.612ZM215.62 255.884L213.532 257.09H208.618L206.53 255.884V245.516L208.618 244.31H213.532L215.62 245.516V255.884ZM209.05 246.47V254.93H213.1V246.47H209.05ZM206.53 274.612V272.254L209.77 270.4H211.93V280.84H214.81V283H206.53V280.84H209.41V272.956L206.53 274.612ZM215.62 307.884L213.532 309.09H208.618L206.53 307.884V297.516L208.618 296.31H213.532L215.62 297.516V307.884ZM209.05 298.47V306.93H213.1V298.47H209.05ZM215.62 333.884L213.532 335.09H208.618L206.53 333.884V323.516L208.618 322.31H213.532L215.62 323.516V333.884ZM209.05 324.47V332.93H213.1V324.47H209.05ZM215.62 359.884L213.532 361.09H208.618L206.53 359.884V349.516L208.618 348.31H213.532L215.62 349.516V359.884ZM209.05 350.47V358.93H213.1V350.47H209.05ZM206.53 378.612V376.254L209.77 374.4H211.93V384.84H214.81V387H206.53V384.84H209.41V376.956L206.53 378.612ZM206.53 404.612V402.254L209.77 400.4H211.93V410.84H214.81V413H206.53V410.84H209.41V402.956L206.53 404.612ZM206.53 430.612V428.254L209.77 426.4H211.93V436.84H214.81V439H206.53V436.84H209.41V428.956L206.53 430.612ZM215.62 463.884L213.532 465.09H208.618L206.53 463.884V453.516L208.618 452.31H213.532L215.62 453.516V463.884ZM209.05 454.47V462.93H213.1V454.47H209.05ZM215.62 489.884L213.532 491.09H208.618L206.53 489.884V479.516L208.618 478.31H213.532L215.62 479.516V489.884ZM209.05 480.47V488.93H213.1V480.47H209.05ZM215.62 515.884L213.532 517.09H208.618L206.53 515.884V505.516L208.618 504.31H213.532L215.62 505.516V515.884ZM209.05 506.47V514.93H213.1V506.47H209.05ZM206.53 534.612V532.254L209.77 530.4H211.93V540.84H214.81V543H206.53V540.84H209.41V532.956L206.53 534.612ZM206.53 560.612V558.254L209.77 556.4H211.93V566.84H214.81V569H206.53V566.84H209.41V558.956L206.53 560.612ZM215.62 593.884L213.532 595.09H208.618L206.53 593.884V583.516L208.618 582.31H213.532L215.62 583.516V593.884ZM209.05 584.47V592.93H213.1V584.47H209.05ZM215.62 619.884L213.532 621.09H208.618L206.53 619.884V609.516L208.618 608.31H213.532L215.62 609.516V619.884ZM209.05 610.47V618.93H213.1V610.47H209.05ZM215.62 645.884L213.532 647.09H208.618L206.53 645.884V635.516L208.618 634.31H213.532L215.62 635.516V645.884ZM209.05 636.47V644.93H213.1V636.47H209.05ZM215.62 671.884L213.532 673.09H208.618L206.53 671.884V661.516L208.618 660.31H213.532L215.62 661.516V671.884ZM209.05 662.47V670.93H213.1V662.47H209.05ZM206.53 690.612V688.254L209.77 686.4H211.93V696.84H214.81V699H206.53V696.84H209.41V688.956L206.53 690.612ZM206.53 716.612V714.254L209.77 712.4H211.93V722.84H214.81V725H206.53V722.84H209.41V714.956L206.53 716.612ZM206.53 742.612V740.254L209.77 738.4H211.93V748.84H214.81V751H206.53V748.84H209.41V740.956L206.53 742.612ZM215.62 775.884L213.532 777.09H208.618L206.53 775.884V765.516L208.618 764.31H213.532L215.62 765.516V775.884ZM209.05 766.47V774.93H213.1V766.47H209.05ZM206.53 794.612V792.254L209.77 790.4H211.93V800.84H214.81V803H206.53V800.84H209.41V792.956L206.53 794.612ZM206.53 820.612V818.254L209.77 816.4H211.93V826.84H214.81V829H206.53V826.84H209.41V818.956L206.53 820.612Z" fill="url(#paint10_linear_161_909)"/>
<path opacity="0.5" d="M7.67 802.194L6.162 803.065H2.613L1.105 802.194V794.706L2.613 793.835H6.162L7.67 794.706V802.194ZM2.925 795.395V801.505H5.85V795.395H2.925ZM1.105 815.942V814.239L3.445 812.9H5.005V820.44H7.085V822H1.105V820.44H3.185V814.746L1.105 815.942ZM7.67 840.194L6.162 841.065H2.613L1.105 840.194V832.706L2.613 831.835H6.162L7.67 832.706V840.194ZM2.925 833.395V839.505H5.85V833.395H2.925ZM1.105 853.942V852.239L3.445 850.9H5.005V858.44H7.085V860H1.105V858.44H3.185V852.746L1.105 853.942ZM7.67 878.194L6.162 879.065H2.613L1.105 878.194V870.706L2.613 869.835H6.162L7.67 870.706V878.194ZM2.925 871.395V877.505H5.85V871.395H2.925ZM1.105 891.942V890.239L3.445 888.9H5.005V896.44H7.085V898H1.105V896.44H3.185V890.746L1.105 891.942ZM7.67 916.194L6.162 917.065H2.613L1.105 916.194V908.706L2.613 907.835H6.162L7.67 908.706V916.194ZM2.925 909.395V915.505H5.85V909.395H2.925ZM1.105 929.942V928.239L3.445 926.9H5.005V934.44H7.085V936H1.105V934.44H3.185V928.746L1.105 929.942ZM7.67 954.194L6.162 955.065H2.613L1.105 954.194V946.706L2.613 945.835H6.162L7.67 946.706V954.194ZM2.925 947.395V953.505H5.85V947.395H2.925ZM7.67 973.194L6.162 974.065H2.613L1.105 973.194V965.706L2.613 964.835H6.162L7.67 965.706V973.194ZM2.925 966.395V972.505H5.85V966.395H2.925ZM7.67 992.194L6.162 993.065H2.613L1.105 992.194V984.706L2.613 983.835H6.162L7.67 984.706V992.194ZM2.925 985.395V991.505H5.85V985.395H2.925ZM1.105 1005.94V1004.24L3.445 1002.9H5.005V1010.44H7.085V1012H1.105V1010.44H3.185V1004.75L1.105 1005.94ZM1.105 1024.94V1023.24L3.445 1021.9H5.005V1029.44H7.085V1031H1.105V1029.44H3.185V1023.75L1.105 1024.94ZM1.105 1043.94V1042.24L3.445 1040.9H5.005V1048.44H7.085V1050H1.105V1048.44H3.185V1042.75L1.105 1043.94ZM7.67 1068.19L6.162 1069.07H2.613L1.105 1068.19V1060.71L2.613 1059.83H6.162L7.67 1060.71V1068.19ZM2.925 1061.39V1067.5H5.85V1061.39H2.925ZM7.67 1087.19L6.162 1088.07H2.613L1.105 1087.19V1079.71L2.613 1078.83H6.162L7.67 1079.71V1087.19ZM2.925 1080.39V1086.5H5.85V1080.39H2.925ZM7.67 1106.19L6.162 1107.07H2.613L1.105 1106.19V1098.71L2.613 1097.83H6.162L7.67 1098.71V1106.19ZM2.925 1099.39V1105.5H5.85V1099.39H2.925ZM1.105 1119.94V1118.24L3.445 1116.9H5.005V1124.44H7.085V1126H1.105V1124.44H3.185V1118.75L1.105 1119.94ZM1.105 1138.94V1137.24L3.445 1135.9H5.005V1143.44H7.085V1145H1.105V1143.44H3.185V1137.75L1.105 1138.94ZM7.67 1163.19L6.162 1164.07H2.613L1.105 1163.19V1155.71L2.613 1154.83H6.162L7.67 1155.71V1163.19ZM2.925 1156.39V1162.5H5.85V1156.39H2.925ZM7.67 1182.19L6.162 1183.07H2.613L1.105 1182.19V1174.71L2.613 1173.83H6.162L7.67 1174.71V1182.19ZM2.925 1175.39V1181.5H5.85V1175.39H2.925ZM7.67 1201.19L6.162 1202.07H2.613L1.105 1201.19V1193.71L2.613 1192.83H6.162L7.67 1193.71V1201.19ZM2.925 1194.39V1200.5H5.85V1194.39H2.925ZM7.67 1220.19L6.162 1221.07H2.613L1.105 1220.19V1212.71L2.613 1211.83H6.162L7.67 1212.71V1220.19ZM2.925 1213.39V1219.5H5.85V1213.39H2.925ZM1.105 1233.94V1232.24L3.445 1230.9H5.005V1238.44H7.085V1240H1.105V1238.44H3.185V1232.75L1.105 1233.94ZM1.105 1252.94V1251.24L3.445 1249.9H5.005V1257.44H7.085V1259H1.105V1257.44H3.185V1251.75L1.105 1252.94ZM1.105 1271.94V1270.24L3.445 1268.9H5.005V1276.44H7.085V1278H1.105V1276.44H3.185V1270.75L1.105 1271.94ZM7.67 1296.19L6.162 1297.07H2.613L1.105 1296.19V1288.71L2.613 1287.83H6.162L7.67 1288.71V1296.19ZM2.925 1289.39V1295.5H5.85V1289.39H2.925ZM1.105 1309.94V1308.24L3.445 1306.9H5.005V1314.44H7.085V1316H1.105V1314.44H3.185V1308.75L1.105 1309.94ZM1.105 1328.94V1327.24L3.445 1325.9H5.005V1333.44H7.085V1335H1.105V1333.44H3.185V1327.75L1.105 1328.94Z" fill="url(#paint11_linear_161_909)"/>
<path d="M485.62 753.884L483.532 755.09H478.618L476.53 753.884V743.516L478.618 742.31H483.532L485.62 743.516V753.884ZM479.05 744.47V752.93H483.1V744.47H479.05ZM476.53 772.612V770.254L479.77 768.4H481.93V778.84H484.81V781H476.53V778.84H479.41V770.956L476.53 772.612ZM485.62 805.884L483.532 807.09H478.618L476.53 805.884V795.516L478.618 794.31H483.532L485.62 795.516V805.884ZM479.05 796.47V804.93H483.1V796.47H479.05ZM476.53 824.612V822.254L479.77 820.4H481.93V830.84H484.81V833H476.53V830.84H479.41V822.956L476.53 824.612ZM485.62 857.884L483.532 859.09H478.618L476.53 857.884V847.516L478.618 846.31H483.532L485.62 847.516V857.884ZM479.05 848.47V856.93H483.1V848.47H479.05ZM476.53 876.612V874.254L479.77 872.4H481.93V882.84H484.81V885H476.53V882.84H479.41V874.956L476.53 876.612ZM485.62 909.884L483.532 911.09H478.618L476.53 909.884V899.516L478.618 898.31H483.532L485.62 899.516V909.884ZM479.05 900.47V908.93H483.1V900.47H479.05ZM476.53 928.612V926.254L479.77 924.4H481.93V934.84H484.81V937H476.53V934.84H479.41V926.956L476.53 928.612ZM485.62 961.884L483.532 963.09H478.618L476.53 961.884V951.516L478.618 950.31H483.532L485.62 951.516V961.884ZM479.05 952.47V960.93H483.1V952.47H479.05ZM485.62 987.884L483.532 989.09H478.618L476.53 987.884V977.516L478.618 976.31H483.532L485.62 977.516V987.884ZM479.05 978.47V986.93H483.1V978.47H479.05ZM485.62 1013.88L483.532 1015.09H478.618L476.53 1013.88V1003.52L478.618 1002.31H483.532L485.62 1003.52V1013.88ZM479.05 1004.47V1012.93H483.1V1004.47H479.05ZM476.53 1032.61V1030.25L479.77 1028.4H481.93V1038.84H484.81V1041H476.53V1038.84H479.41V1030.96L476.53 1032.61ZM476.53 1058.61V1056.25L479.77 1054.4H481.93V1064.84H484.81V1067H476.53V1064.84H479.41V1056.96L476.53 1058.61ZM476.53 1084.61V1082.25L479.77 1080.4H481.93V1090.84H484.81V1093H476.53V1090.84H479.41V1082.96L476.53 1084.61ZM485.62 1117.88L483.532 1119.09H478.618L476.53 1117.88V1107.52L478.618 1106.31H483.532L485.62 1107.52V1117.88ZM479.05 1108.47V1116.93H483.1V1108.47H479.05ZM485.62 1143.88L483.532 1145.09H478.618L476.53 1143.88V1133.52L478.618 1132.31H483.532L485.62 1133.52V1143.88ZM479.05 1134.47V1142.93H483.1V1134.47H479.05ZM485.62 1169.88L483.532 1171.09H478.618L476.53 1169.88V1159.52L478.618 1158.31H483.532L485.62 1159.52V1169.88ZM479.05 1160.47V1168.93H483.1V1160.47H479.05ZM476.53 1188.61V1186.25L479.77 1184.4H481.93V1194.84H484.81V1197H476.53V1194.84H479.41V1186.96L476.53 1188.61ZM476.53 1214.61V1212.25L479.77 1210.4H481.93V1220.84H484.81V1223H476.53V1220.84H479.41V1212.96L476.53 1214.61ZM485.62 1247.88L483.532 1249.09H478.618L476.53 1247.88V1237.52L478.618 1236.31H483.532L485.62 1237.52V1247.88ZM479.05 1238.47V1246.93H483.1V1238.47H479.05ZM485.62 1273.88L483.532 1275.09H478.618L476.53 1273.88V1263.52L478.618 1262.31H483.532L485.62 1263.52V1273.88ZM479.05 1264.47V1272.93H483.1V1264.47H479.05ZM485.62 1299.88L483.532 1301.09H478.618L476.53 1299.88V1289.52L478.618 1288.31H483.532L485.62 1289.52V1299.88ZM479.05 1290.47V1298.93H483.1V1290.47H479.05ZM485.62 1325.88L483.532 1327.09H478.618L476.53 1325.88V1315.52L478.618 1314.31H483.532L485.62 1315.52V1325.88ZM479.05 1316.47V1324.93H483.1V1316.47H479.05ZM476.53 1344.61V1342.25L479.77 1340.4H481.93V1350.84H484.81V1353H476.53V1350.84H479.41V1342.96L476.53 1344.61ZM476.53 1370.61V1368.25L479.77 1366.4H481.93V1376.84H484.81V1379H476.53V1376.84H479.41V1368.96L476.53 1370.61ZM476.53 1396.61V1394.25L479.77 1392.4H481.93V1402.84H484.81V1405H476.53V1402.84H479.41V1394.96L476.53 1396.61ZM485.62 1429.88L483.532 1431.09H478.618L476.53 1429.88V1419.52L478.618 1418.31H483.532L485.62 1419.52V1429.88ZM479.05 1420.47V1428.93H483.1V1420.47H479.05ZM476.53 1448.61V1446.25L479.77 1444.4H481.93V1454.84H484.81V1457H476.53V1454.84H479.41V1446.96L476.53 1448.61ZM476.53 1474.61V1472.25L479.77 1470.4H481.93V1480.84H484.81V1483H476.53V1480.84H479.41V1472.96L476.53 1474.61Z" fill="url(#paint12_linear_161_909)"/>
<path opacity="0.5" d="M416.98 1263.64L414.428 1265.11H408.422L405.87 1263.64V1250.96L408.422 1249.49H414.428L416.98 1250.96V1263.64ZM408.95 1252.13V1262.47H413.9V1252.13H408.95ZM405.87 1285.75V1282.87L409.83 1280.6H412.47V1293.36H415.99V1296H405.87V1293.36H409.39V1283.72L405.87 1285.75ZM416.98 1325.64L414.428 1327.11H408.422L405.87 1325.64V1312.96L408.422 1311.49H414.428L416.98 1312.96V1325.64ZM408.95 1314.13V1324.47H413.9V1314.13H408.95ZM405.87 1347.75V1344.87L409.83 1342.6H412.47V1355.36H415.99V1358H405.87V1355.36H409.39V1345.72L405.87 1347.75ZM416.98 1387.64L414.428 1389.11H408.422L405.87 1387.64V1374.96L408.422 1373.49H414.428L416.98 1374.96V1387.64ZM408.95 1376.13V1386.47H413.9V1376.13H408.95ZM405.87 1409.75V1406.87L409.83 1404.6H412.47V1417.36H415.99V1420H405.87V1417.36H409.39V1407.72L405.87 1409.75ZM416.98 1449.64L414.428 1451.11H408.422L405.87 1449.64V1436.96L408.422 1435.49H414.428L416.98 1436.96V1449.64ZM408.95 1438.13V1448.47H413.9V1438.13H408.95ZM405.87 1471.75V1468.87L409.83 1466.6H412.47V1479.36H415.99V1482H405.87V1479.36H409.39V1469.72L405.87 1471.75ZM416.98 1511.64L414.428 1513.11H408.422L405.87 1511.64V1498.96L408.422 1497.49H414.428L416.98 1498.96V1511.64ZM408.95 1500.13V1510.47H413.9V1500.13H408.95ZM416.98 1542.64L414.428 1544.11H408.422L405.87 1542.64V1529.96L408.422 1528.49H414.428L416.98 1529.96V1542.64ZM408.95 1531.13V1541.47H413.9V1531.13H408.95ZM416.98 1573.64L414.428 1575.11H408.422L405.87 1573.64V1560.96L408.422 1559.49H414.428L416.98 1560.96V1573.64ZM408.95 1562.13V1572.47H413.9V1562.13H408.95ZM405.87 1595.75V1592.87L409.83 1590.6H412.47V1603.36H415.99V1606H405.87V1603.36H409.39V1593.72L405.87 1595.75ZM405.87 1626.75V1623.87L409.83 1621.6H412.47V1634.36H415.99V1637H405.87V1634.36H409.39V1624.72L405.87 1626.75ZM405.87 1657.75V1654.87L409.83 1652.6H412.47V1665.36H415.99V1668H405.87V1665.36H409.39V1655.72L405.87 1657.75ZM416.98 1697.64L414.428 1699.11H408.422L405.87 1697.64V1684.96L408.422 1683.49H414.428L416.98 1684.96V1697.64ZM408.95 1686.13V1696.47H413.9V1686.13H408.95ZM416.98 1728.64L414.428 1730.11H408.422L405.87 1728.64V1715.96L408.422 1714.49H414.428L416.98 1715.96V1728.64ZM408.95 1717.13V1727.47H413.9V1717.13H408.95ZM416.98 1759.64L414.428 1761.11H408.422L405.87 1759.64V1746.96L408.422 1745.49H414.428L416.98 1746.96V1759.64ZM408.95 1748.13V1758.47H413.9V1748.13H408.95ZM405.87 1781.75V1778.87L409.83 1776.6H412.47V1789.36H415.99V1792H405.87V1789.36H409.39V1779.72L405.87 1781.75ZM405.87 1812.75V1809.87L409.83 1807.6H412.47V1820.36H415.99V1823H405.87V1820.36H409.39V1810.72L405.87 1812.75ZM416.98 1852.64L414.428 1854.11H408.422L405.87 1852.64V1839.96L408.422 1838.49H414.428L416.98 1839.96V1852.64ZM408.95 1841.13V1851.47H413.9V1841.13H408.95ZM416.98 1883.64L414.428 1885.11H408.422L405.87 1883.64V1870.96L408.422 1869.49H414.428L416.98 1870.96V1883.64ZM408.95 1872.13V1882.47H413.9V1872.13H408.95ZM416.98 1914.64L414.428 1916.11H408.422L405.87 1914.64V1901.96L408.422 1900.49H414.428L416.98 1901.96V1914.64ZM408.95 1903.13V1913.47H413.9V1903.13H408.95ZM416.98 1945.64L414.428 1947.11H408.422L405.87 1945.64V1932.96L408.422 1931.49H414.428L416.98 1932.96V1945.64ZM408.95 1934.13V1944.47H413.9V1934.13H408.95ZM405.87 1967.75V1964.87L409.83 1962.6H412.47V1975.36H415.99V1978H405.87V1975.36H409.39V1965.72L405.87 1967.75ZM405.87 1998.75V1995.87L409.83 1993.6H412.47V2006.36H415.99V2009H405.87V2006.36H409.39V1996.72L405.87 1998.75ZM405.87 2029.75V2026.87L409.83 2024.6H412.47V2037.36H415.99V2040H405.87V2037.36H409.39V2027.72L405.87 2029.75ZM416.98 2069.64L414.428 2071.11H408.422L405.87 2069.64V2056.96L408.422 2055.49H414.428L416.98 2056.96V2069.64ZM408.95 2058.13V2068.47H413.9V2058.13H408.95ZM405.87 2091.75V2088.87L409.83 2086.6H412.47V2099.36H415.99V2102H405.87V2099.36H409.39V2089.72L405.87 2091.75ZM405.87 2122.75V2119.87L409.83 2117.6H412.47V2130.36H415.99V2133H405.87V2130.36H409.39V2120.72L405.87 2122.75Z" fill="url(#paint13_linear_161_909)"/>
<path d="M502.72 556.504L501.792 557.04H499.608L498.68 556.504V551.896L499.608 551.36H501.792L502.72 551.896V556.504ZM499.8 552.32V556.08H501.6V552.32H499.8ZM498.68 564.272V563.224L500.12 562.4H501.08V567.04H502.36V568H498.68V567.04H499.96V563.536L498.68 564.272ZM502.72 578.504L501.792 579.04H499.608L498.68 578.504V573.896L499.608 573.36H501.792L502.72 573.896V578.504ZM499.8 574.32V578.08H501.6V574.32H499.8ZM498.68 586.272V585.224L500.12 584.4H501.08V589.04H502.36V590H498.68V589.04H499.96V585.536L498.68 586.272ZM502.72 600.504L501.792 601.04H499.608L498.68 600.504V595.896L499.608 595.36H501.792L502.72 595.896V600.504ZM499.8 596.32V600.08H501.6V596.32H499.8ZM498.68 608.272V607.224L500.12 606.4H501.08V611.04H502.36V612H498.68V611.04H499.96V607.536L498.68 608.272ZM502.72 622.504L501.792 623.04H499.608L498.68 622.504V617.896L499.608 617.36H501.792L502.72 617.896V622.504ZM499.8 618.32V622.08H501.6V618.32H499.8ZM498.68 630.272V629.224L500.12 628.4H501.08V633.04H502.36V634H498.68V633.04H499.96V629.536L498.68 630.272ZM502.72 644.504L501.792 645.04H499.608L498.68 644.504V639.896L499.608 639.36H501.792L502.72 639.896V644.504ZM499.8 640.32V644.08H501.6V640.32H499.8ZM502.72 655.504L501.792 656.04H499.608L498.68 655.504V650.896L499.608 650.36H501.792L502.72 650.896V655.504ZM499.8 651.32V655.08H501.6V651.32H499.8ZM502.72 666.504L501.792 667.04H499.608L498.68 666.504V661.896L499.608 661.36H501.792L502.72 661.896V666.504ZM499.8 662.32V666.08H501.6V662.32H499.8ZM498.68 674.272V673.224L500.12 672.4H501.08V677.04H502.36V678H498.68V677.04H499.96V673.536L498.68 674.272ZM498.68 685.272V684.224L500.12 683.4H501.08V688.04H502.36V689H498.68V688.04H499.96V684.536L498.68 685.272ZM498.68 696.272V695.224L500.12 694.4H501.08V699.04H502.36V700H498.68V699.04H499.96V695.536L498.68 696.272ZM502.72 710.504L501.792 711.04H499.608L498.68 710.504V705.896L499.608 705.36H501.792L502.72 705.896V710.504ZM499.8 706.32V710.08H501.6V706.32H499.8ZM502.72 721.504L501.792 722.04H499.608L498.68 721.504V716.896L499.608 716.36H501.792L502.72 716.896V721.504ZM499.8 717.32V721.08H501.6V717.32H499.8ZM502.72 732.504L501.792 733.04H499.608L498.68 732.504V727.896L499.608 727.36H501.792L502.72 727.896V732.504ZM499.8 728.32V732.08H501.6V728.32H499.8ZM498.68 740.272V739.224L500.12 738.4H501.08V743.04H502.36V744H498.68V743.04H499.96V739.536L498.68 740.272ZM498.68 751.272V750.224L500.12 749.4H501.08V754.04H502.36V755H498.68V754.04H499.96V750.536L498.68 751.272ZM502.72 765.504L501.792 766.04H499.608L498.68 765.504V760.896L499.608 760.36H501.792L502.72 760.896V765.504ZM499.8 761.32V765.08H501.6V761.32H499.8ZM502.72 776.504L501.792 777.04H499.608L498.68 776.504V771.896L499.608 771.36H501.792L502.72 771.896V776.504ZM499.8 772.32V776.08H501.6V772.32H499.8ZM502.72 787.504L501.792 788.04H499.608L498.68 787.504V782.896L499.608 782.36H501.792L502.72 782.896V787.504ZM499.8 783.32V787.08H501.6V783.32H499.8ZM502.72 798.504L501.792 799.04H499.608L498.68 798.504V793.896L499.608 793.36H501.792L502.72 793.896V798.504ZM499.8 794.32V798.08H501.6V794.32H499.8ZM498.68 806.272V805.224L500.12 804.4H501.08V809.04H502.36V810H498.68V809.04H499.96V805.536L498.68 806.272ZM498.68 817.272V816.224L500.12 815.4H501.08V820.04H502.36V821H498.68V820.04H499.96V816.536L498.68 817.272ZM498.68 828.272V827.224L500.12 826.4H501.08V831.04H502.36V832H498.68V831.04H499.96V827.536L498.68 828.272ZM502.72 842.504L501.792 843.04H499.608L498.68 842.504V837.896L499.608 837.36H501.792L502.72 837.896V842.504ZM499.8 838.32V842.08H501.6V838.32H499.8ZM498.68 850.272V849.224L500.12 848.4H501.08V853.04H502.36V854H498.68V853.04H499.96V849.536L498.68 850.272ZM498.68 861.272V860.224L500.12 859.4H501.08V864.04H502.36V865H498.68V864.04H499.96V860.536L498.68 861.272Z" fill="url(#paint14_linear_161_909)"/>
<path opacity="0.3" d="M1311.72 1554.5L1310.79 1555.04H1308.61L1307.68 1554.5V1549.9L1308.61 1549.36H1310.79L1311.72 1549.9V1554.5ZM1308.8 1550.32V1554.08H1310.6V1550.32H1308.8ZM1307.68 1562.27V1561.22L1309.12 1560.4H1310.08V1565.04H1311.36V1566H1307.68V1565.04H1308.96V1561.54L1307.68 1562.27ZM1311.72 1576.5L1310.79 1577.04H1308.61L1307.68 1576.5V1571.9L1308.61 1571.36H1310.79L1311.72 1571.9V1576.5ZM1308.8 1572.32V1576.08H1310.6V1572.32H1308.8ZM1307.68 1584.27V1583.22L1309.12 1582.4H1310.08V1587.04H1311.36V1588H1307.68V1587.04H1308.96V1583.54L1307.68 1584.27ZM1311.72 1598.5L1310.79 1599.04H1308.61L1307.68 1598.5V1593.9L1308.61 1593.36H1310.79L1311.72 1593.9V1598.5ZM1308.8 1594.32V1598.08H1310.6V1594.32H1308.8ZM1307.68 1606.27V1605.22L1309.12 1604.4H1310.08V1609.04H1311.36V1610H1307.68V1609.04H1308.96V1605.54L1307.68 1606.27ZM1311.72 1620.5L1310.79 1621.04H1308.61L1307.68 1620.5V1615.9L1308.61 1615.36H1310.79L1311.72 1615.9V1620.5ZM1308.8 1616.32V1620.08H1310.6V1616.32H1308.8ZM1307.68 1628.27V1627.22L1309.12 1626.4H1310.08V1631.04H1311.36V1632H1307.68V1631.04H1308.96V1627.54L1307.68 1628.27ZM1311.72 1642.5L1310.79 1643.04H1308.61L1307.68 1642.5V1637.9L1308.61 1637.36H1310.79L1311.72 1637.9V1642.5ZM1308.8 1638.32V1642.08H1310.6V1638.32H1308.8ZM1311.72 1653.5L1310.79 1654.04H1308.61L1307.68 1653.5V1648.9L1308.61 1648.36H1310.79L1311.72 1648.9V1653.5ZM1308.8 1649.32V1653.08H1310.6V1649.32H1308.8ZM1311.72 1664.5L1310.79 1665.04H1308.61L1307.68 1664.5V1659.9L1308.61 1659.36H1310.79L1311.72 1659.9V1664.5ZM1308.8 1660.32V1664.08H1310.6V1660.32H1308.8ZM1307.68 1672.27V1671.22L1309.12 1670.4H1310.08V1675.04H1311.36V1676H1307.68V1675.04H1308.96V1671.54L1307.68 1672.27ZM1307.68 1683.27V1682.22L1309.12 1681.4H1310.08V1686.04H1311.36V1687H1307.68V1686.04H1308.96V1682.54L1307.68 1683.27ZM1307.68 1694.27V1693.22L1309.12 1692.4H1310.08V1697.04H1311.36V1698H1307.68V1697.04H1308.96V1693.54L1307.68 1694.27ZM1311.72 1708.5L1310.79 1709.04H1308.61L1307.68 1708.5V1703.9L1308.61 1703.36H1310.79L1311.72 1703.9V1708.5ZM1308.8 1704.32V1708.08H1310.6V1704.32H1308.8ZM1311.72 1719.5L1310.79 1720.04H1308.61L1307.68 1719.5V1714.9L1308.61 1714.36H1310.79L1311.72 1714.9V1719.5ZM1308.8 1715.32V1719.08H1310.6V1715.32H1308.8ZM1311.72 1730.5L1310.79 1731.04H1308.61L1307.68 1730.5V1725.9L1308.61 1725.36H1310.79L1311.72 1725.9V1730.5ZM1308.8 1726.32V1730.08H1310.6V1726.32H1308.8ZM1307.68 1738.27V1737.22L1309.12 1736.4H1310.08V1741.04H1311.36V1742H1307.68V1741.04H1308.96V1737.54L1307.68 1738.27ZM1307.68 1749.27V1748.22L1309.12 1747.4H1310.08V1752.04H1311.36V1753H1307.68V1752.04H1308.96V1748.54L1307.68 1749.27ZM1311.72 1763.5L1310.79 1764.04H1308.61L1307.68 1763.5V1758.9L1308.61 1758.36H1310.79L1311.72 1758.9V1763.5ZM1308.8 1759.32V1763.08H1310.6V1759.32H1308.8ZM1311.72 1774.5L1310.79 1775.04H1308.61L1307.68 1774.5V1769.9L1308.61 1769.36H1310.79L1311.72 1769.9V1774.5ZM1308.8 1770.32V1774.08H1310.6V1770.32H1308.8ZM1311.72 1785.5L1310.79 1786.04H1308.61L1307.68 1785.5V1780.9L1308.61 1780.36H1310.79L1311.72 1780.9V1785.5ZM1308.8 1781.32V1785.08H1310.6V1781.32H1308.8ZM1311.72 1796.5L1310.79 1797.04H1308.61L1307.68 1796.5V1791.9L1308.61 1791.36H1310.79L1311.72 1791.9V1796.5ZM1308.8 1792.32V1796.08H1310.6V1792.32H1308.8ZM1307.68 1804.27V1803.22L1309.12 1802.4H1310.08V1807.04H1311.36V1808H1307.68V1807.04H1308.96V1803.54L1307.68 1804.27ZM1307.68 1815.27V1814.22L1309.12 1813.4H1310.08V1818.04H1311.36V1819H1307.68V1818.04H1308.96V1814.54L1307.68 1815.27ZM1307.68 1826.27V1825.22L1309.12 1824.4H1310.08V1829.04H1311.36V1830H1307.68V1829.04H1308.96V1825.54L1307.68 1826.27ZM1311.72 1840.5L1310.79 1841.04H1308.61L1307.68 1840.5V1835.9L1308.61 1835.36H1310.79L1311.72 1835.9V1840.5ZM1308.8 1836.32V1840.08H1310.6V1836.32H1308.8ZM1307.68 1848.27V1847.22L1309.12 1846.4H1310.08V1851.04H1311.36V1852H1307.68V1851.04H1308.96V1847.54L1307.68 1848.27ZM1307.68 1859.27V1858.22L1309.12 1857.4H1310.08V1862.04H1311.36V1863H1307.68V1862.04H1308.96V1858.54L1307.68 1859.27Z" fill="url(#paint15_linear_161_909)"/>
<path opacity="0.5" d="M1225.08 554.256L1223.69 555.06H1220.41L1219.02 554.256V547.344L1220.41 546.54H1223.69L1225.08 547.344V554.256ZM1220.7 547.98V553.62H1223.4V547.98H1220.7ZM1219.02 566.408V564.836L1221.18 563.6H1222.62V570.56H1224.54V572H1219.02V570.56H1220.94V565.304L1219.02 566.408ZM1225.08 588.256L1223.69 589.06H1220.41L1219.02 588.256V581.344L1220.41 580.54H1223.69L1225.08 581.344V588.256ZM1220.7 581.98V587.62H1223.4V581.98H1220.7ZM1219.02 600.408V598.836L1221.18 597.6H1222.62V604.56H1224.54V606H1219.02V604.56H1220.94V599.304L1219.02 600.408ZM1225.08 622.256L1223.69 623.06H1220.41L1219.02 622.256V615.344L1220.41 614.54H1223.69L1225.08 615.344V622.256ZM1220.7 615.98V621.62H1223.4V615.98H1220.7ZM1219.02 634.408V632.836L1221.18 631.6H1222.62V638.56H1224.54V640H1219.02V638.56H1220.94V633.304L1219.02 634.408ZM1225.08 656.256L1223.69 657.06H1220.41L1219.02 656.256V649.344L1220.41 648.54H1223.69L1225.08 649.344V656.256ZM1220.7 649.98V655.62H1223.4V649.98H1220.7ZM1219.02 668.408V666.836L1221.18 665.6H1222.62V672.56H1224.54V674H1219.02V672.56H1220.94V667.304L1219.02 668.408ZM1225.08 690.256L1223.69 691.06H1220.41L1219.02 690.256V683.344L1220.41 682.54H1223.69L1225.08 683.344V690.256ZM1220.7 683.98V689.62H1223.4V683.98H1220.7ZM1225.08 707.256L1223.69 708.06H1220.41L1219.02 707.256V700.344L1220.41 699.54H1223.69L1225.08 700.344V707.256ZM1220.7 700.98V706.62H1223.4V700.98H1220.7ZM1225.08 724.256L1223.69 725.06H1220.41L1219.02 724.256V717.344L1220.41 716.54H1223.69L1225.08 717.344V724.256ZM1220.7 717.98V723.62H1223.4V717.98H1220.7ZM1219.02 736.408V734.836L1221.18 733.6H1222.62V740.56H1224.54V742H1219.02V740.56H1220.94V735.304L1219.02 736.408ZM1219.02 753.408V751.836L1221.18 750.6H1222.62V757.56H1224.54V759H1219.02V757.56H1220.94V752.304L1219.02 753.408ZM1219.02 770.408V768.836L1221.18 767.6H1222.62V774.56H1224.54V776H1219.02V774.56H1220.94V769.304L1219.02 770.408ZM1225.08 792.256L1223.69 793.06H1220.41L1219.02 792.256V785.344L1220.41 784.54H1223.69L1225.08 785.344V792.256ZM1220.7 785.98V791.62H1223.4V785.98H1220.7ZM1225.08 809.256L1223.69 810.06H1220.41L1219.02 809.256V802.344L1220.41 801.54H1223.69L1225.08 802.344V809.256ZM1220.7 802.98V808.62H1223.4V802.98H1220.7ZM1225.08 826.256L1223.69 827.06H1220.41L1219.02 826.256V819.344L1220.41 818.54H1223.69L1225.08 819.344V826.256ZM1220.7 819.98V825.62H1223.4V819.98H1220.7ZM1219.02 838.408V836.836L1221.18 835.6H1222.62V842.56H1224.54V844H1219.02V842.56H1220.94V837.304L1219.02 838.408ZM1219.02 855.408V853.836L1221.18 852.6H1222.62V859.56H1224.54V861H1219.02V859.56H1220.94V854.304L1219.02 855.408ZM1225.08 877.256L1223.69 878.06H1220.41L1219.02 877.256V870.344L1220.41 869.54H1223.69L1225.08 870.344V877.256ZM1220.7 870.98V876.62H1223.4V870.98H1220.7ZM1225.08 894.256L1223.69 895.06H1220.41L1219.02 894.256V887.344L1220.41 886.54H1223.69L1225.08 887.344V894.256ZM1220.7 887.98V893.62H1223.4V887.98H1220.7ZM1225.08 911.256L1223.69 912.06H1220.41L1219.02 911.256V904.344L1220.41 903.54H1223.69L1225.08 904.344V911.256ZM1220.7 904.98V910.62H1223.4V904.98H1220.7ZM1225.08 928.256L1223.69 929.06H1220.41L1219.02 928.256V921.344L1220.41 920.54H1223.69L1225.08 921.344V928.256ZM1220.7 921.98V927.62H1223.4V921.98H1220.7ZM1219.02 940.408V938.836L1221.18 937.6H1222.62V944.56H1224.54V946H1219.02V944.56H1220.94V939.304L1219.02 940.408ZM1219.02 957.408V955.836L1221.18 954.6H1222.62V961.56H1224.54V963H1219.02V961.56H1220.94V956.304L1219.02 957.408ZM1219.02 974.408V972.836L1221.18 971.6H1222.62V978.56H1224.54V980H1219.02V978.56H1220.94V973.304L1219.02 974.408ZM1225.08 996.256L1223.69 997.06H1220.41L1219.02 996.256V989.344L1220.41 988.54H1223.69L1225.08 989.344V996.256ZM1220.7 989.98V995.62H1223.4V989.98H1220.7ZM1219.02 1008.41V1006.84L1221.18 1005.6H1222.62V1012.56H1224.54V1014H1219.02V1012.56H1220.94V1007.3L1219.02 1008.41ZM1219.02 1025.41V1023.84L1221.18 1022.6H1222.62V1029.56H1224.54V1031H1219.02V1029.56H1220.94V1024.3L1219.02 1025.41Z" fill="url(#paint16_linear_161_909)"/>
<defs>
<linearGradient id="paint0_linear_161_909" x1="1467.5" y1="0" x2="1467.5" y2="756" gradientUnits="userSpaceOnUse">
<stop stop-color="#25E1AE"/>
<stop offset="1" stop-color="#25E1AE" stop-opacity="0"/>
</linearGradient>
<linearGradient id="paint1_linear_161_909" x1="1442.5" y1="463" x2="1442.5" y2="1381" gradientUnits="userSpaceOnUse">
<stop stop-color="#25E1AE"/>
<stop offset="1" stop-color="#25E1AE" stop-opacity="0"/>
</linearGradient>
<linearGradient id="paint2_linear_161_909" x1="621.5" y1="298" x2="621.5" y2="1216" gradientUnits="userSpaceOnUse">
<stop stop-color="#25E1AE"/>
<stop offset="1" stop-color="#25E1AE" stop-opacity="0"/>
</linearGradient>
<linearGradient id="paint3_linear_161_909" x1="273.5" y1="513" x2="273.5" y2="1209" gradientUnits="userSpaceOnUse">
<stop stop-color="#25E1AE"/>
<stop offset="1" stop-color="#25E1AE" stop-opacity="0"/>
</linearGradient>
<linearGradient id="paint4_linear_161_909" x1="1171.5" y1="806" x2="1171.5" y2="1299" gradientUnits="userSpaceOnUse">
<stop stop-color="#25E1AE"/>
<stop offset="1" stop-color="#25E1AE" stop-opacity="0"/>
</linearGradient>
<linearGradient id="paint5_linear_161_909" x1="726.5" y1="1217" x2="726.5" y2="1971" gradientUnits="userSpaceOnUse">
<stop stop-color="#25E1AE"/>
<stop offset="1" stop-color="#25E1AE" stop-opacity="0"/>
</linearGradient>
<linearGradient id="paint6_linear_161_909" x1="1582.5" y1="994" x2="1582.5" y2="1748" gradientUnits="userSpaceOnUse">
<stop stop-color="#25E1AE"/>
<stop offset="1" stop-color="#25E1AE" stop-opacity="0"/>
</linearGradient>
<linearGradient id="paint7_linear_161_909" x1="1713.5" y1="175" x2="1713.5" y2="755" gradientUnits="userSpaceOnUse">
<stop stop-color="#25E1AE"/>
<stop offset="1" stop-color="#25E1AE" stop-opacity="0"/>
</linearGradient>
<linearGradient id="paint8_linear_161_909" x1="1607.5" y1="630" x2="1607.5" y2="1384" gradientUnits="userSpaceOnUse">
<stop stop-color="#25E1AE"/>
<stop offset="1" stop-color="#25E1AE" stop-opacity="0"/>
</linearGradient>
<linearGradient id="paint9_linear_161_909" x1="85.5" y1="566" x2="85.5" y2="606" gradientUnits="userSpaceOnUse">
<stop stop-color="#25E1AE"/>
<stop offset="1" stop-color="#25E1AE" stop-opacity="0"/>
</linearGradient>
<linearGradient id="paint10_linear_161_909" x1="208.5" y1="82" x2="208.5" y2="836" gradientUnits="userSpaceOnUse">
<stop stop-color="#25E1AE"/>
<stop offset="1" stop-color="#25E1AE" stop-opacity="0"/>
</linearGradient>
<linearGradient id="paint11_linear_161_909" x1="3.5" y1="789" x2="3.5" y2="1340" gradientUnits="userSpaceOnUse">
<stop stop-color="#25E1AE"/>
<stop offset="1" stop-color="#25E1AE" stop-opacity="0"/>
</linearGradient>
<linearGradient id="paint12_linear_161_909" x1="478.5" y1="736" x2="478.5" y2="1490" gradientUnits="userSpaceOnUse">
<stop stop-color="#25E1AE"/>
<stop offset="1" stop-color="#25E1AE" stop-opacity="0"/>
</linearGradient>
<linearGradient id="paint13_linear_161_909" x1="407.5" y1="1242" x2="407.5" y2="2141" gradientUnits="userSpaceOnUse">
<stop stop-color="#25E1AE"/>
<stop offset="1" stop-color="#25E1AE" stop-opacity="0"/>
</linearGradient>
<linearGradient id="paint14_linear_161_909" x1="501.5" y1="549" x2="501.5" y2="868" gradientUnits="userSpaceOnUse">
<stop stop-color="#25E1AE"/>
<stop offset="1" stop-color="#25E1AE" stop-opacity="0"/>
</linearGradient>
<linearGradient id="paint15_linear_161_909" x1="1310.5" y1="1547" x2="1310.5" y2="1866" gradientUnits="userSpaceOnUse">
<stop stop-color="#25E1AE"/>
<stop offset="1" stop-color="#25E1AE" stop-opacity="0"/>
</linearGradient>
<linearGradient id="paint16_linear_161_909" x1="1221.5" y1="542" x2="1221.5" y2="1035" gradientUnits="userSpaceOnUse">
<stop stop-color="#25E1AE"/>
<stop offset="1" stop-color="#25E1AE" stop-opacity="0"/>
</linearGradient>
</defs>
</svg>
