<svg width="55" height="55" viewBox="0 0 55 48" fill="none" xmlns="http://www.w3.org/2000/svg">
    <path d="M53.1051 14.4564L41.9662 1.75666C40.9871 0.639309 39.5702 0 38.0842 0H16.2901C14.8099 0 13.4046 0.633549 12.4255 1.73938L1.30382 14.3067C-0.429798 16.2649 -0.435557 19.2196 1.2923 21.1778L23.3225 46.2433C24.3017 47.3549 25.7128 48 27.1987 48H27.2045C28.6847 48 30.0958 47.3607 31.0806 46.2549L53.0994 21.3218C54.8215 19.3636 54.8272 16.4147 53.1051 14.4564V14.4564ZM50.6976 19.2023L28.6732 44.1354C28.293 44.5673 27.7689 44.8035 27.1987 44.8035H27.193C26.6228 44.8035 26.0986 44.5673 25.7185 44.1354L3.69403 19.0641C3.03169 18.3096 3.03169 17.1749 3.69979 16.4262L14.8215 3.86465C15.1958 3.4442 15.7315 3.2023 16.2901 3.2023H38.0842C38.6487 3.2023 39.1901 3.4442 39.5587 3.87041L50.6976 16.5702C51.36 17.3189 51.36 18.4536 50.6976 19.2023V19.2023Z" fill="#25E1AE"/>
    <path d="M40.2497 21.0507L27.0603 35.6742L14.1647 21.0046C13.583 20.3423 12.5693 20.2789 11.907 20.8607C11.2446 21.4424 11.1813 22.456 11.763 23.1184L24.6528 37.7879C25.2922 38.5194 26.2194 38.9398 27.1928 38.9398H27.1986C28.1662 38.9398 29.0935 38.5252 29.7328 37.7937L42.6514 23.1702C43.2389 22.5079 43.1755 21.4942 42.5132 20.9125C41.8451 20.3308 40.8372 20.3884 40.2497 21.0507V21.0507Z" fill="#25E1AE"/>
</svg>
