<svg xmlns="http://www.w3.org/2000/svg" viewBox="0 0 366.73 96.35"><defs><style>.cls-1{fill:#f2f2f2;}.cls-2{fill:#00ffd4;}</style></defs><g><g><polygon class="cls-1" points="149.88 7.95 127.32 59.93 138.65 59.93 138.65 59.93 159.36 46.12 157.32 42.44 143.07 49.74 155.53 21.02 172.44 59.93 183.74 59.93 161.18 7.95 149.88 7.95"/><path class="cls-1" d="M200.5,23.71V59.9H190.11V8H200.7l31,36.19V8h10.39v52H231.49Z"/><path class="cls-1" d="M287.08,59.9l-17.32,0v0q-17.31,0-17.32-17.32V25.27q0-17.32,17.32-17.32h17.32q17.31,0,17.31,17.32V42.58Q304.39,59.86,287.08,59.9Zm-1.74-10.39q8.67,0,8.66-8.66V27q0-8.66-8.66-8.66H269.76q-6.93,0-6.93,8.66V40.85q0,8.65,8.66,8.66Z"/><path class="cls-1" d="M325.17,23.71V59.9H314.78V8h10.6l31,36.19V8h10.39v52H356.17Z"/><path class="cls-2" d="M142.76,90.11l-5.63-13-5.61,13h-3.77l7.5-17.3H139l7.51,17.3Z"/><path class="cls-2" d="M159.19,78.06v12h-3.46V72.81h3.53l10.31,12v-12H173v17.3h-3.52Z"/><path class="cls-2" d="M195.1,90.11h-5.77q-5.76,0-5.76-5.77V78.58c0-3.84,1.92-5.77,5.76-5.77h5.77c3.84,0,5.76,1.93,5.76,5.77v5.76Q200.86,90.1,195.1,90.11Zm-.58-3.46a2.55,2.55,0,0,0,2.89-2.88V79.16a2.56,2.56,0,0,0-2.89-2.89h-5.19c-1.53,0-2.3,1-2.3,2.89v4.61a2.55,2.55,0,0,0,2.88,2.88Z"/><path class="cls-2" d="M214.87,78.06v12h-3.46V72.81h3.52l10.31,12v-12h3.46v17.3h-3.52Z"/><path class="cls-2" d="M256.71,72.81l-7.51,17.3h-3.75l-7.51-17.3h3.77l5.62,13,5.62-13Z"/><path class="cls-2" d="M269.39,86.65h13.83v3.46H265.93V72.81h17.29v3.46H269.39v3.46h13.83v3.46H269.39Z"/><path class="cls-2" d="M298.91,83.19h-1.69v6.92h-3.46V72.81h11.53q5.77,0,5.77,5.19t-5.77,5.19h-1.07l8.12,6.92H307Zm5.81-3.46c1.92,0,2.88-.57,2.88-1.73s-1-1.73-2.88-1.73h-7.5v3.46Z"/><path class="cls-2" d="M327.37,83.19q-5.78,0-5.77-5.19t5.77-5.19h11.52v3.46H327.94c-1.92,0-2.88.58-2.88,1.73s1,1.73,2.88,1.73h5.19q5.76,0,5.76,5.19t-5.76,5.19H321.6V86.65h10.95c1.92,0,2.89-.58,2.89-1.73s-1-1.73-2.89-1.73Z"/><path class="cls-2" d="M352.9,86.65h13.83v3.46H349.44V72.81h17.29v3.46H352.9v3.46h13.83v3.46H352.9Z"/><polygon class="cls-1" points="96.82 22.16 63.31 31.63 29.79 22.16 37.75 0 63.31 0 88.86 0 96.82 22.16"/><polygon class="cls-1" points="102.42 25.87 63.31 37.87 24.19 25.87 0 31.09 63.31 57.72 126.61 31.09 102.42 25.87"/><path class="cls-1" d="M71.75,65.69H54.86a31.25,31.25,0,0,1-19.21-7c0,4.52.67,4.89,3.37,10.12A129.36,129.36,0,0,0,47.37,83c2.36,3.43,11.12,10.58,14.55,13.31a82.88,82.88,0,0,0-3.56-10.07h9.89a76.92,76.92,0,0,0-3.64,10.14C68,93.67,76.86,86.43,79.24,83a129.36,129.36,0,0,0,8.35-14.16c2.7-5.23,3.37-5.5,3.37-10.12A28.66,28.66,0,0,1,71.75,65.69Zm7.93,10.65a2.08,2.08,0,0,1-1.34,1.08q-5.67.7-11.36,1.18a2.3,2.3,0,0,1-1.63-.8,32.16,32.16,0,0,1-2.07-3,32.16,32.16,0,0,1-2.07,3,2.3,2.3,0,0,1-1.63.8q-5.69-.46-11.36-1.18a2.1,2.1,0,0,1-1.35-1.08c-.87-1.84-3.36-7.14-3.39-7.21a13.81,13.81,0,0,0,3.05-.58,2.17,2.17,0,0,0,.09.81s1.19,3.14,1.92,4.71a1.58,1.58,0,0,0,1.14.79c2.21,0,4.43,0,6.65-.07a1.11,1.11,0,0,0,.75-.49,20.22,20.22,0,0,0,1.51-2.58c.46-1,.14-1.31-1-1.32A5.36,5.36,0,0,1,56,70.05c.06-.2.26-.53.33-.72a9.82,9.82,0,0,1,2,.66c.74.43,1.35,1.07,2.05,1.56a5.23,5.23,0,0,0,2.9,1.14,5.2,5.2,0,0,0,2.89-1.14c.71-.49,1.32-1.13,2-1.56a9.92,9.92,0,0,1,2-.66c.07.19.26.52.33.72a5.35,5.35,0,0,1-1.59.35c-1.1,0-1.42.32-1,1.32a21.4,21.4,0,0,0,1.5,2.58,1.1,1.1,0,0,0,.76.49c2.22.06,4.44.11,6.65.07A1.62,1.62,0,0,0,78,74.07c.73-1.57,1.92-4.67,1.92-4.71a2.17,2.17,0,0,0,.08-.81,13.9,13.9,0,0,0,3.06.58C83.05,69.2,80.56,74.5,79.68,76.34Z"/><path class="cls-2" d="M37.09,51.52a66.76,66.76,0,0,0,20.38,8s-4.5,2.09-13.3-.7C39.14,57.27,35.85,54,37.09,51.52Z"/><path class="cls-2" d="M89.52,51.52a66.76,66.76,0,0,1-20.38,8s4.5,2.09,13.3-.7C87.47,57.27,90.76,54,89.52,51.52Z"/></g></g></svg>