<svg width="55" height="55" viewBox="0 0 48 46" fill="none" xmlns="http://www.w3.org/2000/svg">
    <path d="M47.6602 21.5516L43.3611 16.3134L43.7031 9.59924C43.7202 9.25598 43.619 8.91724 43.4164 8.63959C43.2139 8.36195 42.9222 8.1622 42.5901 8.07369L35.9554 6.31264L32.2023 0.670963C32.0149 0.388405 31.7372 0.177744 31.4146 0.0733927C31.092 -0.0309586 30.7436 -0.0228321 30.4262 0.0964449L24 2.50102L17.5723 0.0964449C17.255 -0.0233888 16.9064 -0.0317983 16.5836 0.0725964C16.2609 0.176991 15.9833 0.387989 15.7962 0.670963L12.0446 6.31114L5.40992 8.07519C5.07782 8.1637 4.78613 8.36345 4.58356 8.64109C4.38099 8.91874 4.2798 9.25748 4.29688 9.60074L4.6389 16.315L0.339761 21.5531C-0.113254 22.1051 -0.113254 22.9032 0.339761 23.4552L4.6389 28.6933L4.29688 35.4076C4.26238 36.1141 4.7259 36.7516 5.40992 36.9331L12.0431 38.6942L15.7962 44.3358C15.9838 44.6182 16.2615 44.8287 16.584 44.933C16.9065 45.0373 17.2549 45.0293 17.5723 44.9103L24 42.5043L30.4277 44.9088C30.7451 45.0278 31.0935 45.0358 31.416 44.9315C31.7385 44.8272 32.0162 44.6167 32.2038 44.3343L35.9569 38.6942L42.5901 36.9316C43.2741 36.7501 43.7376 36.1126 43.7031 35.406L43.3611 28.6918L47.6602 23.4537C48.1133 22.9017 48.1133 22.1036 47.6602 21.5516ZM40.673 27.2368C40.4369 27.5256 40.3166 27.8918 40.3355 28.2643L40.6445 34.344L34.6368 35.9401C34.2828 36.0346 33.9768 36.2536 33.7728 36.5581L30.3647 41.6822L24.5265 39.4997C24.187 39.3724 23.813 39.3724 23.4735 39.4997L17.6353 41.6822L14.2272 36.5581C14.0239 36.2539 13.7167 36.0342 13.3632 35.9401L7.35548 34.344L7.66449 28.2643C7.68338 27.8918 7.56308 27.5256 7.32698 27.2368L3.44036 22.5026L7.32548 17.7685C7.56249 17.479 7.68399 17.113 7.66449 16.741L7.35548 10.6613L13.3647 9.06522C13.7187 8.97072 14.0247 8.75172 14.2287 8.44721L17.6368 3.32305L23.475 5.50561C23.8144 5.63341 24.1886 5.63341 24.528 5.50561L30.3662 3.32305L33.7743 8.44721C33.9768 8.75172 34.2843 8.97222 34.6383 9.06522L40.646 10.6613L40.337 16.741C40.3175 17.113 40.439 17.479 40.6745 17.7685L44.5596 22.5026L40.6745 27.2368H40.673Z" fill="#25E1AE"/>
    <path d="M32.5611 13.9415C32.2798 13.6603 31.8983 13.5023 31.5006 13.5023C31.1028 13.5023 30.7213 13.6603 30.44 13.9415L15.4396 28.942C15.2963 29.0804 15.182 29.2459 15.1034 29.4289C15.0248 29.6119 14.9834 29.8087 14.9817 30.0079C14.9799 30.2071 15.0179 30.4046 15.0933 30.589C15.1687 30.7733 15.2801 30.9408 15.421 31.0816C15.5618 31.2225 15.7293 31.3339 15.9136 31.4093C16.098 31.4847 16.2955 31.5227 16.4947 31.5209C16.6939 31.5192 16.8907 31.4778 17.0737 31.3992C17.2567 31.3206 17.4223 31.2063 17.5606 31.063L32.5611 16.0626C32.8423 15.7813 33.0003 15.3998 33.0003 15.002C33.0003 14.6043 32.8423 14.2228 32.5611 13.9415ZM30.0005 24.0023C27.5194 24.0023 25.5004 26.0214 25.5004 28.5025C25.5004 30.9835 27.5194 33.0026 30.0005 33.0026C32.4816 33.0026 34.5007 30.9835 34.5007 28.5025C34.5007 26.0214 32.4816 24.0023 30.0005 24.0023ZM30.0005 30.0025C29.6143 29.9852 29.2496 29.8197 28.9824 29.5402C28.7152 29.2608 28.5661 28.8891 28.5661 28.5025C28.5661 28.1159 28.7152 27.7441 28.9824 27.4647C29.2496 27.1853 29.6143 27.0197 30.0005 27.0024C30.3867 27.0197 30.7514 27.1853 31.0186 27.4647C31.2858 27.7441 31.435 28.1159 31.435 28.5025C31.435 28.8891 31.2858 29.2608 31.0186 29.5402C30.7514 29.8197 30.3867 29.9852 30.0005 30.0025ZM22.5003 16.5021C22.5003 14.021 20.4812 12.002 18.0001 12.002C15.5191 12.002 13.5 14.021 13.5 16.5021C13.5 18.9832 15.5191 21.0022 18.0001 21.0022C20.4812 21.0022 22.5003 18.9832 22.5003 16.5021ZM16.5001 16.5021C16.4912 16.2997 16.5235 16.0975 16.5949 15.9079C16.6663 15.7183 16.7754 15.5451 16.9156 15.3987C17.0558 15.2524 17.2242 15.136 17.4106 15.0566C17.597 14.9771 17.7976 14.9363 18.0002 14.9365C18.2028 14.9367 18.4033 14.978 18.5896 15.0578C18.7758 15.1376 18.944 15.2543 19.0839 15.4009C19.2238 15.5475 19.3325 15.7209 19.4036 15.9107C19.4746 16.1005 19.5064 16.3027 19.4972 16.5051C19.4795 16.8909 19.3137 17.2551 19.0343 17.5217C18.7549 17.7884 18.3834 17.937 17.9972 17.9366C17.611 17.9362 17.2398 17.7869 16.9609 17.5196C16.682 17.2524 16.517 16.888 16.5001 16.5021Z" fill="#25E1AE"/>
</svg>
