<svg width="55" height="55" viewBox="0 0 48 44" fill="none" xmlns="http://www.w3.org/2000/svg">
    <path d="M21.9706 15.5868L21.9636 14.1109C21.9615 13.6164 22.1206 13.1857 22.2449 12.9018C22.3644 12.6291 22.517 12.351 22.6365 12.1335C22.6456 12.1169 22.6547 12.1003 22.6633 12.0843C22.9585 11.5459 23.0903 11.2598 23.1181 11.0444C23.1186 11.0396 23.1197 11.0353 23.1208 11.03C23.1299 10.9839 23.1433 10.9159 22.9354 10.7343C22.6006 10.4412 21.8222 10.0143 20.1626 9.59479C18.8367 9.25943 17.9651 8.41943 17.4529 7.42889C16.9681 6.48978 16.8117 5.43711 16.7785 4.54728C16.7452 3.64086 16.8363 2.78746 16.9306 2.173C16.9783 1.86228 17.0286 1.60407 17.0678 1.42085C17.0876 1.32871 17.1042 1.25532 17.1165 1.20228L17.1315 1.13907L17.1363 1.11978L17.1379 1.11335L17.1385 1.11068C17.1385 1.11014 17.139 1.10907 18.5667 1.47603L17.1385 1.11068C17.341 0.321032 18.1451 -0.156289 18.9342 0.0467466C19.7217 0.249247 20.1969 1.05228 19.996 1.84085L19.9944 1.84621L19.9863 1.8805C19.9783 1.91318 19.9665 1.96514 19.952 2.03371C19.9231 2.17193 19.8835 2.37496 19.8449 2.623C19.7672 3.12657 19.7008 3.78121 19.7249 4.438C19.7495 5.11139 19.8669 5.67603 20.0715 6.073C20.2499 6.418 20.4851 6.63229 20.8836 6.733C22.6933 7.1905 24.0133 7.75836 24.8742 8.51103C25.8395 9.35479 26.1749 10.3898 26.0415 11.4226C25.9338 12.2546 25.5213 13.0057 25.2749 13.4541C25.2653 13.4712 25.2561 13.4878 25.2476 13.5044C25.1019 13.7701 25.0092 13.9389 24.946 14.0846C24.9294 14.1226 24.9192 14.15 24.9128 14.1682L24.9192 15.5728L21.9706 15.5868Z" fill="#25E1AE"/>
    <path d="M0.394728 20.7804C0.906335 16.0013 5.03616 12.7201 9.67652 12.6992L38.1851 12.5685C42.8249 12.547 46.9847 15.7903 47.5403 20.5645C48.0235 24.7174 48.3294 30.1849 47.3887 34.6244C46.9183 36.8433 46.1067 38.9567 44.7133 40.5103C43.2653 42.1244 41.2746 43.0335 38.7433 42.9242C37.0226 42.8497 35.401 42.141 34.066 41.3283C32.7165 40.506 31.5471 39.5085 30.7097 38.7124C30.024 38.061 29.1926 37.6988 28.3885 37.7026L19.9387 37.7417C19.0521 37.7454 18.1226 38.2013 17.3501 38.9942C15.8174 40.567 13.0081 42.8701 9.39634 43.0592C6.86616 43.1915 4.86741 42.3012 3.40437 40.6999C1.99651 39.1597 1.16562 37.0533 0.674906 34.8381C-0.305987 30.4072 -0.050451 24.937 0.394728 20.7804ZM9.68991 15.6504C6.38723 15.6654 3.66151 17.9685 3.32669 21.0949C2.88848 25.1851 2.68116 30.2583 3.55384 34.199C3.99044 36.1694 4.66544 37.7063 5.58044 38.7076C6.44027 39.6483 7.58027 40.1985 9.24259 40.1112C11.7203 39.9815 13.8604 38.3481 15.2394 36.9328C16.4008 35.7408 18.0422 34.7979 19.9253 34.7894L28.3751 34.7508C30.0749 34.7433 31.6103 35.4981 32.7401 36.5717C33.4896 37.2842 34.4903 38.1312 35.5987 38.8062C36.7226 39.4908 37.8476 39.9312 38.8697 39.9751C40.5331 40.0469 41.6678 39.486 42.519 38.5378C43.4249 37.5279 44.086 35.9851 44.5039 34.011C45.3406 30.0622 45.0867 24.9917 44.611 20.9053C44.2478 17.782 41.5012 15.5042 38.198 15.5197L9.68991 15.6504Z" fill="#25E1AE"/>
    <path d="M13.4324 19.9551C14.305 19.9513 15.0154 20.6558 15.0191 21.529L15.0261 23.1105L16.6059 23.1035C17.4786 23.0997 18.189 23.8042 18.1927 24.6774C18.1965 25.5506 17.4925 26.2621 16.6204 26.2658L15.0406 26.2733L15.0481 27.8547C15.0518 28.728 14.3479 29.4394 13.4758 29.4431C12.6031 29.4469 11.8927 28.7424 11.889 27.8692L11.8815 26.2878L10.3016 26.2953C9.42897 26.299 8.71861 25.5946 8.71486 24.7213C8.71111 23.8481 9.41504 23.1367 10.2872 23.133L11.867 23.1255L11.8595 21.544C11.8563 20.6703 12.5602 19.9594 13.4324 19.9551ZM30.0861 23.0413C30.0824 22.1681 30.7863 21.4567 31.6584 21.453L31.869 21.4519C32.7411 21.4481 33.452 22.1526 33.4558 23.0258C33.4595 23.899 32.7556 24.6105 31.8834 24.6142L31.6729 24.6153C30.8008 24.619 30.0904 23.9146 30.0861 23.0413ZM36.4242 27.229C36.4204 26.3558 37.1243 25.6444 37.9965 25.6406L38.207 25.6396C39.0792 25.6358 39.79 26.3403 39.7938 27.2135C39.7976 28.0867 39.0936 28.7981 38.2215 28.8019L38.0109 28.803C37.1388 28.8067 36.4284 28.1022 36.4242 27.229Z" fill="#25E1AE"/>
</svg>
